<svg xmlns="http://www.w3.org/2000/svg" viewBox="0 0 1075 627.23"><g id="Слой_2" data-name="Слой 2"><g id="Слой_1-2" data-name="Слой 1"><polygon points="697.41 311.05 648.57 298.67 563.93 298.67 563.93 249.84 541.96 214.03 513.48 249.84 513.48 298.67 427.21 298.67 375.99 312.81 371 314.29 376.01 315.81 427.21 328.57 513.48 328.57 513.48 377.4 541.96 413.2 563.93 377.4 563.93 328.57 648.57 328.57 706.35 313.92 706.35 313.31 706 313.22 697.41 311.05" style="fill:#e0852a;fill-rule:evenodd"/><path d="M876.43,199.38,847.14,214l-85.45-50.46-55.34,35.81-57.78-35.81,83.82-50.45L535.45,0,343.39,113.12l83.82,50.45-56.15,35.81-57-35.81L228.65,214l-29.3-14.65L0,313.62,199.35,427.85l29.3-14.65,85.45,50.46,57-35.81,56.15,35.81-83.82,50.45L535.45,627.23,732.39,514.11l-83.82-50.45,57.78-35.81,55.34,35.81,85.45-50.46,29.29,14.65L1075,313.62Zm-29.29,178-85.45,50.45-29.3-14.65,59.41-35.8-30.11-12.21L563.93,478.31l27.67,20.34,27.67-20.34,57.78,35.8L542,593.05,398.73,514.11l57.78-35.8,27.67,20.34,29.3-20.34L314.1,365.19,285.61,377.4l57.78,35.8L314.1,427.85,228.65,377.4l-29.3,22L58.89,314.12v-1l140.46-85.26,29.3,22,85.45-50.46L343.39,214l-57.78,35.81L314.1,262,513.48,148.93l-29.3-20.35-27.67,20.35-57.78-35.81L542,34.18l135.09,78.94-57.78,35.81L591.6,128.58l-27.67,20.35L761.69,262l30.11-12.2L732.39,214l29.3-14.65,85.45,50.46,29.29-22L1018,313.29v.65L876.43,399.37Z" style="fill:#e0852a;fill-rule:evenodd"/></g></g></svg>