<svg width="40" height="41" viewBox="0 0 40 41" fill="none" xmlns="http://www.w3.org/2000/svg">
<path d="M38.9504 31.5112L30.8542 25.9975C29.8268 25.3034 28.4496 25.5318 27.69 26.5223L25.3317 29.6188C25.0286 30.0269 24.4777 30.1453 24.0392 29.8966L23.5906 29.644C22.1035 28.8162 20.2532 27.7857 16.525 23.9771C12.7969 20.1685 11.7857 18.2775 10.9751 16.7616L10.7292 16.3034C10.4823 15.8558 10.596 15.2908 10.9958 14.9788L14.0259 12.5711C14.9955 11.7953 15.2194 10.3893 14.5406 9.33976L9.14136 1.07181C8.4456 0.00303595 7.04971 -0.317803 5.97261 0.343419L2.58709 2.42026C1.52334 3.0589 0.742912 4.09322 0.409446 5.30645C-0.809671 9.84271 0.107459 17.6716 11.4005 29.2056C20.3838 38.3789 27.0715 40.8458 31.6682 40.8458C32.7261 40.8504 33.7798 40.7099 34.8011 40.4279C35.9893 40.0877 37.0023 39.2907 37.6273 38.204L39.663 34.7487C40.3114 33.6485 39.9974 32.2222 38.9504 31.5112ZM38.5144 34.0503L36.4834 37.5076C36.0346 38.2919 35.3061 38.8686 34.4503 39.1168C30.3496 40.2666 23.1854 39.3143 12.3436 28.2425C1.50186 17.1706 0.569422 9.855 1.69527 5.66662C1.93867 4.79169 2.50406 4.04671 3.27301 3.58771L6.65852 1.51358C7.12587 1.2264 7.73172 1.3656 8.03363 1.82939L10.9666 6.32617L13.4282 10.0966C13.723 10.5519 13.6262 11.162 13.2056 11.4989L10.1747 13.9066C9.25236 14.6268 8.98896 15.93 9.55684 16.9643L9.79751 17.4109C10.6494 19.0065 11.7086 20.9914 15.5753 24.9396C19.4421 28.8877 21.3852 29.9694 22.9469 30.8393L23.3848 31.0857C24.3975 31.6656 25.6738 31.3967 26.379 30.4547L28.7367 27.3595C29.0666 26.9303 29.6639 26.8315 30.1098 27.1322L38.2053 32.646C38.6597 32.9541 38.796 33.5731 38.5144 34.0503Z" fill="#26558C"/>
<path d="M22.6636 6.81002C28.9186 6.81712 33.9876 11.9937 33.9946 18.3815C33.9946 18.7574 34.293 19.0621 34.6611 19.0621C35.0292 19.0621 35.3276 18.7574 35.3276 18.3815C35.3199 11.2422 29.6546 5.45655 22.6636 5.44873C22.2954 5.44873 21.9971 5.75344 21.9971 6.12938C21.9971 6.50532 22.2954 6.81002 22.6636 6.81002Z" fill="#26558C"/>
<path d="M22.6636 10.8944C26.7109 10.8993 29.9907 14.2487 29.9954 18.3818C29.9954 18.7578 30.2939 19.0625 30.6619 19.0625C31.03 19.0625 31.3284 18.7578 31.3284 18.3818C31.3229 13.4971 27.4467 9.5387 22.6636 9.53311C22.2954 9.53311 21.9971 9.83782 21.9971 10.2138C21.9971 10.5897 22.2954 10.8944 22.6636 10.8944Z" fill="#26558C"/>
<path d="M22.6636 14.9783C24.5032 14.9805 25.994 16.5029 25.9962 18.3817C25.9962 18.7576 26.2947 19.0623 26.6627 19.0623C27.0308 19.0623 27.3292 18.7576 27.3292 18.3817C27.3263 15.7515 25.2391 13.6199 22.6636 13.617C22.2954 13.617 21.9971 13.9217 21.9971 14.2976C21.9971 14.6736 22.2954 14.9783 22.6636 14.9783Z" fill="#26558C"/>
</svg>
