<svg width="40" height="41" viewBox="0 0 40 41" fill="none" xmlns="http://www.w3.org/2000/svg">
<path d="M30.2863 4.70688H18.8558C18.5241 4.70688 18.2554 4.98143 18.2554 5.32005C18.2554 5.65867 18.5241 5.93322 18.8558 5.93322H30.2863C30.618 5.93322 30.8867 5.65867 30.8867 5.32005C30.8867 4.98143 30.618 4.70688 30.2863 4.70688Z" fill="#26558C"/>
<path d="M30.2863 7.56812H18.8558C18.5241 7.56812 18.2554 7.84267 18.2554 8.1813C18.2554 8.51992 18.5241 8.79447 18.8558 8.79447H30.2863C30.618 8.79447 30.8867 8.51992 30.8867 8.1813C30.8867 7.84259 30.618 7.56812 30.2863 7.56812Z" fill="#26558C"/>
<path d="M37.3796 11.0721H37.2998V9.60375C37.2998 8.62627 36.5211 7.83103 35.5639 7.83103H34.9932V6.75331C34.9932 6.41469 34.7244 6.14014 34.3928 6.14014C34.0611 6.14014 33.7923 6.41469 33.7923 6.75331V11.0721H15.3496V1.7345C15.3496 1.46595 15.5635 1.24756 15.8264 1.24756H33.3155C33.5785 1.24756 33.7924 1.46603 33.7924 1.7345V3.8868C33.7924 4.22543 34.0612 4.49998 34.3928 4.49998C34.7245 4.49998 34.9933 4.22543 34.9933 3.8868V1.7345C34.9932 0.789743 34.2406 0.0212173 33.3155 0.0212173H15.8264C14.9013 0.0212173 14.1488 0.789743 14.1488 1.7345V7.83111H13.578C12.8923 7.83111 12.2984 8.23925 12.0165 8.8301C11.4737 8.33484 10.7583 8.0331 9.97483 8.0331H5.9053C4.24454 8.0331 2.88865 9.388 2.83961 11.0722H2.62036C1.17548 11.0722 0 12.2726 0 13.7481V35.2645C0 36.74 1.17548 37.9405 2.62036 37.9405H2.83961C2.88865 39.6245 4.24454 40.9794 5.9053 40.9794H9.97476C11.6356 40.9794 12.9915 39.6245 13.0405 37.9403H37.3796C38.8245 37.9403 40 36.7399 40 35.2644V13.748C39.9999 12.2725 38.8244 11.0721 37.3796 11.0721ZM34.9932 9.05737H35.5639C35.8589 9.05737 36.099 9.30248 36.099 9.60375V11.0721H34.9931V9.05737H34.9932ZM13.5779 9.05737H14.1487V11.0721H13.0428V9.60375C13.0429 9.3024 13.2829 9.05737 13.5779 9.05737ZM1.20078 35.2644V13.748C1.20078 12.9486 1.83764 12.2983 2.62036 12.2983H2.83726V13.4795C2.83726 16.3442 3.22196 18.1714 3.41936 19.8859V29.1063C2.66179 32.9389 2.87377 35.6589 2.83726 36.714H2.62036C1.83764 36.7141 1.20078 36.0637 1.20078 35.2644ZM11.842 37.8462C11.842 38.8977 11.0043 39.7531 9.97476 39.7531H5.9053C4.87567 39.7531 4.03813 38.8977 4.03813 37.8462C4.0939 35.9074 3.82137 33.2284 4.60808 29.2905C4.61615 29.2502 4.62023 29.2091 4.62023 29.168V19.8444C4.62023 19.8168 4.61842 19.7891 4.61474 19.7618C4.41844 18.0643 4.03813 16.2513 4.03813 13.4795V11.1662C4.03813 10.1147 4.87575 9.25928 5.9053 9.25928H9.97476C11.0044 9.25928 11.842 10.1147 11.842 11.1662V11.6853V13.4796C11.842 16.2406 11.4691 17.9995 11.2654 19.7619C11.2617 19.7892 11.2599 19.8169 11.2599 19.8445V29.1679C11.2599 29.209 11.264 29.2501 11.272 29.2905C12.0581 33.2258 11.7858 35.891 11.842 37.8462ZM38.7991 35.2644C38.7991 36.0638 38.1623 36.7141 37.3796 36.7141H13.0429C13.0081 35.7107 13.219 32.9435 12.4608 29.1064V19.8859C12.6592 18.1626 13.0429 16.3535 13.0429 13.4795V12.2983H37.3796C38.1624 12.2983 38.7992 12.9486 38.7992 13.748V35.2644H38.7991Z" fill="#26558C"/>
<path d="M32.6414 15.0382H16.5001C15.73 15.0382 15.1035 15.6779 15.1035 16.4644V20.3106C15.1035 21.0969 15.73 21.7368 16.5001 21.7368H19.3068C19.6385 21.7368 19.9073 21.4622 19.9073 21.1236C19.9073 20.785 19.6385 20.5104 19.3068 20.5104H16.5001C16.3921 20.5104 16.3043 20.4207 16.3043 20.3106V16.4644C16.3043 16.3541 16.3921 16.2645 16.5001 16.2645H32.6414C32.7492 16.2645 32.837 16.3542 32.837 16.4644V20.3106C32.837 20.4208 32.7492 20.5104 32.6414 20.5104H22.1139C21.7822 20.5104 21.5134 20.785 21.5134 21.1236C21.5134 21.4622 21.7822 21.7368 22.1139 21.7368H32.6414C33.4114 21.7368 34.0378 21.097 34.0378 20.3106V16.4644C34.0379 15.678 33.4115 15.0382 32.6414 15.0382Z" fill="#26558C"/>
<path d="M17.8512 23.7311H16.2711C15.6273 23.7311 15.1035 24.266 15.1035 24.9235V26.4763C15.1035 27.1338 15.6273 27.6686 16.2711 27.6686H17.8512C18.4951 27.6686 19.0187 27.1337 19.0187 26.4763V24.9235C19.0187 24.266 18.495 23.7311 17.8512 23.7311ZM17.8179 26.4423H16.3044V24.9574H17.8179V26.4423Z" fill="#26558C"/>
<path d="M22.8581 23.7311H21.2779C20.6341 23.7311 20.1104 24.266 20.1104 24.9235V26.4763C20.1104 27.1338 20.6342 27.6686 21.2779 27.6686H22.8581C23.5019 27.6686 24.0256 27.1337 24.0256 26.4763V24.9235C24.0256 24.266 23.5019 23.7311 22.8581 23.7311ZM22.8249 26.4423H21.3112V24.9574H22.8249V26.4423Z" fill="#26558C"/>
<path d="M27.8644 23.7311H26.2843C25.6404 23.7311 25.1167 24.266 25.1167 24.9235V26.4763C25.1167 27.1338 25.6405 27.6686 26.2843 27.6686H27.8644C28.5083 27.6686 29.032 27.1337 29.032 26.4763V24.9235C29.032 24.266 28.5083 23.7311 27.8644 23.7311ZM27.8312 26.4423H26.3176V24.9574H27.8312V26.4423Z" fill="#26558C"/>
<path d="M32.8707 23.7311H31.2905C30.6467 23.7311 30.123 24.266 30.123 24.9235V26.4763C30.123 27.1338 30.6468 27.6686 31.2905 27.6686H32.8707C33.5145 27.6686 34.0383 27.1337 34.0383 26.4763V24.9235C34.0383 24.266 33.5145 23.7311 32.8707 23.7311ZM32.8375 26.4423H31.3239V24.9574H32.8375V26.4423Z" fill="#26558C"/>
<path d="M17.8512 29.5615H16.2711C15.6273 29.5615 15.1035 30.0963 15.1035 30.7538V32.3066C15.1035 32.9641 15.6273 33.499 16.2711 33.499H17.8512C18.4951 33.499 19.0187 32.9641 19.0187 32.3066V30.7538C19.0187 30.0964 18.495 29.5615 17.8512 29.5615ZM17.8179 32.2727H16.3044V30.7878H17.8179V32.2727Z" fill="#26558C"/>
<path d="M22.8581 29.5615H21.2779C20.6341 29.5615 20.1104 30.0963 20.1104 30.7538V32.3066C20.1104 32.9641 20.6342 33.499 21.2779 33.499H22.8581C23.5019 33.499 24.0256 32.9641 24.0256 32.3066V30.7538C24.0256 30.0964 23.5019 29.5615 22.8581 29.5615ZM22.8249 32.2727H21.3112V30.7878H22.8249V32.2727Z" fill="#26558C"/>
<path d="M27.8644 29.5615H26.2843C25.6404 29.5615 25.1167 30.0963 25.1167 30.7538V32.3066C25.1167 32.9641 25.6405 33.499 26.2843 33.499H27.8644C28.5083 33.499 29.032 32.9641 29.032 32.3066V30.7538C29.032 30.0964 28.5083 29.5615 27.8644 29.5615ZM27.8312 32.2727H26.3176V30.7878H27.8312V32.2727Z" fill="#26558C"/>
<path d="M32.8707 29.5615H31.2905C30.6467 29.5615 30.123 30.0963 30.123 30.7538V32.3066C30.123 32.9641 30.6468 33.499 31.2905 33.499H32.8707C33.5145 33.499 34.0383 32.9641 34.0383 32.3066V30.7538C34.0383 30.0964 33.5145 29.5615 32.8707 29.5615ZM32.8375 32.2727H31.3239V30.7878H32.8375V32.2727Z" fill="#26558C"/>
</svg>
