<svg width="20" height="15" viewBox="0 0 20 15" fill="none" xmlns="http://www.w3.org/2000/svg">
<path d="M18.9743 0.998535H1.02566C0.461523 0.998535 0 1.46006 0 2.02416V13.3062C0 13.8703 0.461523 14.3319 1.02566 14.3319H18.9743C19.5384 14.3319 20 13.8703 20 13.3062V2.02416C20 1.46006 19.5384 0.998535 18.9743 0.998535ZM18.5894 1.76771L10.59 7.76778C10.4462 7.87723 10.2254 7.94571 9.99994 7.94469C9.77455 7.94571 9.55381 7.87723 9.40994 7.76778L1.41051 1.76771H18.5894ZM14.3164 8.16368L18.6754 13.5483C18.6797 13.5537 18.6851 13.5578 18.6897 13.5627H1.31023C1.31484 13.5576 1.32023 13.5537 1.32461 13.5483L5.68358 8.16368C5.81714 7.99856 5.79182 7.75649 5.6264 7.62262C5.46128 7.48907 5.21921 7.51438 5.08562 7.67954L0.769217 13.0116V2.24849L8.94866 8.38309C9.25611 8.61207 9.63018 8.71286 9.9999 8.71387C10.3691 8.71309 10.7435 8.61231 11.0512 8.38309L19.2306 2.24849V13.0115L14.9143 7.67954C14.7807 7.51442 14.5384 7.48903 14.3735 7.62262C14.2081 7.75618 14.1827 7.99856 14.3164 8.16368Z" fill="#F1F1F1"/>
</svg>
