<svg width="18" height="20" viewBox="0 0 18 20" fill="none" xmlns="http://www.w3.org/2000/svg">
<path d="M11.0629 5.46088C11.0628 4.96923 10.9336 4.48865 10.6915 4.07989C10.4495 3.67114 10.1055 3.35257 9.70301 3.16447C9.30054 2.97637 8.85769 2.92719 8.43045 3.02315C8.00322 3.11911 7.61079 3.35589 7.30278 3.70356C6.99478 4.05123 6.78504 4.49416 6.70008 4.97637C6.61511 5.45857 6.65875 5.95838 6.82546 6.41259C6.99218 6.86681 7.27449 7.25503 7.63669 7.52816C7.99889 7.8013 8.42472 7.94708 8.86033 7.94708C9.44432 7.94628 10.0042 7.68407 10.4171 7.21798C10.83 6.75189 11.0623 6.11998 11.0629 5.46088ZM7.17946 5.46088C7.17952 5.08568 7.27815 4.71894 7.46288 4.40701C7.64762 4.09508 7.91015 3.85198 8.2173 3.70844C8.52444 3.56491 8.8624 3.52739 9.18843 3.60063C9.51447 3.67386 9.81395 3.85457 10.049 4.11989C10.284 4.38522 10.4441 4.72325 10.5089 5.09123C10.5738 5.45922 10.5405 5.84065 10.4132 6.18727C10.286 6.5339 10.0706 6.83016 9.79414 7.0386C9.51773 7.24704 9.19276 7.35829 8.86033 7.35829C8.41464 7.35771 7.98736 7.15761 7.67224 6.80189C7.35712 6.44617 7.1799 5.96389 7.17946 5.46088Z" fill="#F1F1F1"/>
<path d="M17.7033 19.5999L15.5769 13.3083C15.5581 13.2525 15.5247 13.2046 15.4812 13.1708C15.4376 13.137 15.3861 13.1189 15.3332 13.1188H11.3088C11.3334 13.0736 11.3578 13.0297 11.3824 12.9842C12.9309 10.0908 13.7102 7.55964 13.699 5.4622C13.6992 4.01378 13.1896 2.62459 12.2823 1.60023C11.375 0.575864 10.1443 0.000245468 8.86097 7.84901e-08C7.57762 -0.000245311 6.34675 0.574902 5.43914 1.59892C4.53152 2.62293 4.02151 4.01193 4.02129 5.46035C4.01011 7.55964 4.78936 10.0911 6.33787 12.9842C6.36246 13.0302 6.38691 13.0741 6.4115 13.1188H2.38707C2.33424 13.1189 2.28265 13.137 2.23914 13.1708C2.19563 13.2046 2.16223 13.2525 2.14337 13.3083L0.017281 19.5999C0.00213193 19.6445 -0.00317289 19.6925 0.00182493 19.7399C0.00682275 19.7874 0.0219729 19.8327 0.0459664 19.872C0.0699598 19.9113 0.102075 19.9435 0.139537 19.9656C0.176999 19.9878 0.218682 19.9993 0.260983 19.9993H17.4596C17.5019 19.9993 17.5436 19.9878 17.5811 19.9656C17.6185 19.9435 17.6506 19.9113 17.6746 19.872C17.6986 19.8327 17.7138 19.7874 17.7188 19.7399C17.7238 19.6925 17.7185 19.6445 17.7033 19.5999ZM4.54312 5.46086C4.54322 4.82099 4.65499 4.18742 4.87204 3.5963C5.08908 3.00519 5.40717 2.46811 5.80812 2.01573C6.20908 1.56336 6.68505 1.20455 7.20887 0.959785C7.73269 0.715021 8.2941 0.5891 8.86104 0.58921C9.42798 0.589321 9.98935 0.715461 10.5131 0.960429C11.0368 1.2054 11.5127 1.56439 11.9135 2.01692C12.3143 2.46946 12.6323 3.00666 12.8491 3.59786C13.066 4.18906 13.1776 4.82268 13.1775 5.46254C13.1998 9.6443 9.73583 14.8019 8.86029 16.0387C7.98476 14.8024 4.52062 9.64615 4.54312 5.46086ZM8.66161 16.6948C8.68609 16.7273 8.71655 16.7534 8.75085 16.7713C8.78516 16.7892 8.8225 16.7985 8.86029 16.7985C8.89809 16.7985 8.93543 16.7892 8.96974 16.7713C9.00404 16.7534 9.03449 16.7273 9.05898 16.6948C9.75154 15.7426 10.3936 14.745 10.9818 13.7073H15.1533L15.4872 14.6956L7.33533 17.9678L4.4297 13.7068H6.73853C7.32679 14.7447 7.96894 15.7425 8.66161 16.6948ZM7.32624 18.5958H7.32773L12.1909 16.6443L14.0771 19.4105H5.29793L7.32624 18.5958ZM2.56698 13.7068H3.77133L6.81827 18.1752L3.74137 19.4103H0.639577L2.56698 13.7068ZM14.7361 19.4105L12.7076 16.4359L15.6738 15.2454L17.0813 19.4105H14.7361Z" fill="#F1F1F1"/>
</svg>
