<svg width="36" height="28" viewBox="0 0 36 28" fill="none" xmlns="http://www.w3.org/2000/svg">
<path fill-rule="evenodd" clip-rule="evenodd" d="M7.62939e-06 19.083H2.59996V21.2246H4.92953V23.387H14.7678L16.4109 25.5702L15.475 26.693H11.4814L10.5662 25.5702H14.7678L13.8318 24.5306H8.23668L10.5662 27.795H16.4109L18.0749 26.693L19.6973 27.795H25.3132L27.7052 24.5306H22.0269L21.3197 25.5702H25.3132L24.4396 26.693H20.4253L19.6973 25.5702L21.3197 23.387H30.2635V21.2246H32.6347V19.083H35.0059V9.10269H32.6347V6.87791H30.2635V4.71551H21.3197L19.6973 2.53231L20.4253 1.40953H24.4396L25.3132 2.53231H21.3197L22.0269 3.61352H27.7052L25.3132 0.349121H19.6973L18.0749 1.40953L16.4109 0.349121H10.5662L8.23668 3.61352H13.8318L14.7678 2.53231H10.5662L11.4814 1.40953H15.475L16.4109 2.53231L14.7678 4.71551H4.92953V6.87791H2.59996V9.10269H7.62939e-06V19.083Z" fill="#C03F2A"/>
<path fill-rule="evenodd" clip-rule="evenodd" d="M34.257 10.3294V17.9602H31.9066V20.1641H29.3483V22.3473H21.3196L18.0748 25.5702L14.7677 22.3473H5.86543V20.1641H3.28628V17.9602H0.89431V10.1422H3.28628V7.97982L5.86543 8.16695V5.75504H14.7677L18.0748 2.53223L21.3196 5.75504H29.3483V8.16695H31.9066V10.3294H34.257Z" fill="#307359"/>
<path d="M33.6954 17.9601H34.6938V10.3293H33.5914L33.6954 17.9601ZM34.257 18.5423H34.6938V17.9809H34.153L34.257 18.5423ZM34.257 17.4403H31.9067V18.5423H34.257V17.4403ZM31.9067 17.4403H31.3451V17.9809H31.9067V17.4403ZM31.3451 20.1849H32.4475V17.9601H31.3451V20.1849ZM31.9067 20.6216H32.4475V20.081H31.9067V20.6216ZM31.9067 19.5196H29.3483V20.6216H31.9067V19.5196ZM29.3483 19.5196H28.8075V20.081H29.3483V19.5196ZM28.8075 22.2642H29.9099V20.1849H28.8075V22.2642ZM29.3483 22.784H29.9099V22.2642H29.3483V22.784ZM29.3483 21.7028H21.3404V22.784H29.3483V21.7028ZM21.3404 21.7028H20.758L21.3404 22.2642V21.7028ZM20.758 21.7028L17.6797 24.9672L18.4077 25.8612L21.694 22.7008L20.758 21.7028ZM17.6797 25.8612L18.0541 26.2355L18.4077 25.8612L18.0541 25.487L17.6797 25.8612ZM18.4077 24.9672L15.1421 21.7028L14.3933 22.5968L17.6797 25.8612L18.4077 24.9672ZM15.1421 21.7028H14.7677V22.2642L15.1421 21.7028ZM14.7677 21.7028H5.86547V22.784H14.7677V21.7028ZM5.26228 22.784H5.86547V22.2642H5.26228V22.784ZM6.38546 20.081H5.26228V22.1602H6.38546V20.081ZM6.38546 19.5196H5.86547V20.081H6.38546V19.5196ZM5.86547 19.5196H3.28631V20.6216H5.86547V19.5196ZM2.76632 20.6216H3.28631V20.081H2.76632V20.6216ZM3.8271 17.877H2.76632V20.081H3.8271V17.877ZM3.8271 17.3364H3.28631V17.877H3.8271V17.3364ZM3.28631 17.3364H0.915146V18.5423H3.28631V17.3364ZM0.395153 18.4384H0.915146V17.877H0.395153V18.4384ZM1.41434 10.2254H0.332752V18.0433H1.41434V10.2254ZM0.852745 9.66399H0.332752V10.2254H0.852745V9.66399ZM0.852745 10.766H3.28631V9.66399H0.915146L0.852745 10.766ZM3.22391 10.766H3.7647V10.2254H3.22391V10.766ZM3.7647 8.06298H2.70392V10.1422H3.7647V8.06298ZM3.22391 7.50159H2.70392V8.06298H3.28631L3.22391 7.50159ZM3.22391 8.62437L5.80307 8.76992V7.70951L3.22391 7.50159V8.62437ZM5.80307 8.76992H6.32306V8.14615H5.80307V8.76992ZM6.32306 5.8382H5.19988V8.14615H6.32306V5.8382ZM5.80307 5.31839H5.19988V5.87979H5.80307V5.31839ZM5.80307 6.44118H14.7677V5.23522H5.86547L5.80307 6.44118ZM14.7053 6.44118H15.1421L14.7677 5.8382L14.7053 6.44118ZM15.0797 6.44118L18.3453 3.1352L17.6173 2.24112L14.3309 5.50552L15.0797 6.44118ZM18.3453 2.28271L17.9917 1.90845L17.6173 2.28271L18.0541 2.53222L18.3453 2.28271ZM17.6173 3.17678L20.758 6.35801L21.694 5.42235L18.4077 2.15795L17.6173 3.17678ZM20.758 6.35801H21.3404V5.75503L20.758 6.35801ZM21.3404 6.35801H29.3483V5.23522H21.3404V6.35801ZM29.9099 5.23522H29.3483V5.79661H29.9099V5.23522ZM28.8075 8.14615H29.9099V5.75503H28.8075V8.14615ZM28.8075 8.66596H29.3483V8.14615H28.8075V8.66596ZM29.3483 8.66596H31.9067V7.60555H29.3483V8.66596ZM32.4475 7.60555H31.9067V8.14615H32.4475V7.60555ZM31.3451 10.3086H32.4475V8.14615H31.3451V10.3086ZM31.3451 10.87H31.9067V10.3086H31.3451V10.87ZM31.9067 10.87H34.257V9.80954H31.9067V10.87ZM34.6938 9.80954H34.153V10.3293H34.6938V9.80954Z" fill="#E0852A"/>
<path fill-rule="evenodd" clip-rule="evenodd" d="M22.7964 6.87769L27.7051 12.3253V6.87769H22.7964Z" fill="#C03F2A"/>
<path fill-rule="evenodd" clip-rule="evenodd" d="M13.1454 6.87769L8.23666 12.3253V6.87769H13.1454Z" fill="#C03F2A"/>
<path fill-rule="evenodd" clip-rule="evenodd" d="M22.7964 21.2249L27.7051 15.8188V21.2249H22.7964Z" fill="#C03F2A"/>
<path fill-rule="evenodd" clip-rule="evenodd" d="M13.1454 21.2249L8.23666 15.8188V21.2249H13.1454Z" fill="#C03F2A"/>
<path fill-rule="evenodd" clip-rule="evenodd" d="M11.4814 10.1423L13.1454 12.3255H9.87984L11.4814 10.1423Z" fill="#C03F2A"/>
<path fill-rule="evenodd" clip-rule="evenodd" d="M24.4395 10.1423L26.0827 12.3255H22.7964L24.4395 10.1423Z" fill="#C03F2A"/>
<path fill-rule="evenodd" clip-rule="evenodd" d="M24.4395 17.9605L26.0827 15.8188H22.7964L24.4395 17.9605Z" fill="#C03F2A"/>
<path fill-rule="evenodd" clip-rule="evenodd" d="M11.4814 17.9605L13.1454 15.8188H9.87984L11.4814 17.9605Z" fill="#C03F2A"/>
<path fill-rule="evenodd" clip-rule="evenodd" d="M18.0748 23.387L19.6972 21.2246H16.4109L18.0748 23.387Z" fill="#E0852A"/>
<path fill-rule="evenodd" clip-rule="evenodd" d="M18.0748 12.3255L19.6972 10.1423H16.4109L18.0748 12.3255Z" fill="#E0852A"/>
<path fill-rule="evenodd" clip-rule="evenodd" d="M18.0748 4.71558L19.6972 6.87798H16.4109L18.0748 4.71558Z" fill="#E0852A"/>
<path fill-rule="evenodd" clip-rule="evenodd" d="M18.0748 15.8188L19.6972 17.9605H16.4109L18.0748 15.8188Z" fill="#E0852A"/>
<path d="M9.87984 12.3254H13.1454V13.4482H9.87984V12.3254Z" fill="#E0852A"/>
<path d="M23.6908 13.4482H25.3132V14.6958H23.6908V13.4482Z" fill="#CF3B1D"/>
<path d="M10.5871 13.4482H12.251V14.6958H10.5871V13.4482Z" fill="#CF3B1D"/>
<path d="M16.4109 6.87769H19.6972V7.95889H16.4109V6.87769Z" fill="#AD3B2B"/>
<path d="M16.4109 9.10254H19.6972V10.1629H16.4109V9.10254Z" fill="#AD3B2B"/>
<path d="M15.475 7.97949H20.4253V9.10229H15.475V7.97949Z" fill="#AD3B2B"/>
<path d="M16.4109 17.9602H19.6972V19.083H16.4109V17.9602Z" fill="#AD3B2B"/>
<path d="M16.4109 20.1641H19.6972V21.2245H16.4109V20.1641Z" fill="#AD3B2B"/>
<path d="M15.475 19.083H20.4253V20.1642H15.475V19.083Z" fill="#AD3B2B"/>
<path d="M9.87984 14.6956H13.1454V15.8183H9.87984V14.6956Z" fill="#E0852A"/>
<path d="M22.7964 12.3254H26.0827V13.4482H22.7964V12.3254Z" fill="#E0852A"/>
<path d="M22.7964 14.6956H26.0827V15.8183H22.7964V14.6956Z" fill="#E0852A"/>
<path d="M25.3131 13.4482H26.9771V14.6958H25.3131V13.4482Z" fill="#E0852A"/>
<path d="M22.0269 13.4482H23.6908V14.6958H22.0269V13.4482Z" fill="#E0852A"/>
<path d="M12.2301 13.4482H13.8317V14.6958H12.2301V13.4482Z" fill="#E0852A"/>
<path d="M9.11031 13.4482H10.5663V14.6958H9.11031V13.4482Z" fill="#E0852A"/>
<path fill-rule="evenodd" clip-rule="evenodd" d="M19.8636 19.6029C19.8636 19.6029 19.8636 19.7485 20.0508 19.7485L20.134 19.6029C20.1235 19.4748 20.0639 19.3556 19.9676 19.2703C19.7804 19.2703 19.7804 19.4158 19.7804 19.6029H19.8636Z" fill="white"/>
<path fill-rule="evenodd" clip-rule="evenodd" d="M17.6797 19.6026C17.7858 19.6898 17.917 19.7408 18.0541 19.7482L18.2413 19.6026C18.2255 19.4713 18.1582 19.3516 18.0541 19.2699C18.0077 19.2671 17.9611 19.2735 17.9171 19.2887C17.8732 19.3039 17.8326 19.3277 17.7978 19.3586C17.7631 19.3895 17.7347 19.427 17.7145 19.4688C17.6942 19.5107 17.6824 19.5562 17.6797 19.6026Z" fill="white"/>
<path fill-rule="evenodd" clip-rule="evenodd" d="M15.7037 19.4158C15.7142 19.544 15.7738 19.6632 15.8701 19.7485C15.9626 19.7491 16.052 19.7154 16.1212 19.654C16.1903 19.5925 16.2342 19.5077 16.2445 19.4158C16.1335 19.3375 16.0049 19.2875 15.8701 19.2703L15.7037 19.4158Z" fill="white"/>
<path fill-rule="evenodd" clip-rule="evenodd" d="M18.9692 18.5425L19.1356 18.7296C19.302 18.7296 19.302 18.5425 19.302 18.5425C19.302 18.5425 19.302 18.1682 19.1356 18.1682C19.0433 18.2731 18.9853 18.4037 18.9692 18.5425Z" fill="white"/>
<path fill-rule="evenodd" clip-rule="evenodd" d="M16.5982 18.3346C16.5982 18.5217 16.5982 18.7089 16.7646 18.7089C16.931 18.7089 16.931 18.5217 16.931 18.3346C16.931 18.1475 16.931 18.1475 16.7646 18.1475C16.5982 18.1475 16.5982 18.3346 16.5982 18.3346Z" fill="white"/>
<path fill-rule="evenodd" clip-rule="evenodd" d="M18.9692 20.6215C18.9853 20.7603 19.0433 20.8909 19.1356 20.9958C19.302 20.9958 19.302 20.8086 19.302 20.6215C19.302 20.4344 19.302 20.4136 19.1356 20.4136L18.9692 20.6215Z" fill="white"/>
<path fill-rule="evenodd" clip-rule="evenodd" d="M16.5982 20.6219C16.5982 20.809 16.5982 20.809 16.7646 20.809C16.931 20.809 16.931 20.809 16.931 20.6219C16.931 20.4347 16.931 20.2268 16.7646 20.2268C16.5982 20.2268 16.5982 20.4347 16.5982 20.6219Z" fill="white"/>
<path fill-rule="evenodd" clip-rule="evenodd" d="M13.3117 13.9681C13.3278 14.1069 13.3859 14.2375 13.4781 14.3424C13.6653 14.3424 13.6653 14.1553 13.6653 13.9681C13.6653 13.781 13.6653 13.781 13.4781 13.781C13.4544 13.7808 13.4309 13.7857 13.4093 13.7953C13.3876 13.805 13.3682 13.8191 13.3525 13.8368C13.3367 13.8546 13.3249 13.8754 13.3179 13.8981C13.3109 13.9207 13.3088 13.9446 13.3117 13.9681Z" fill="white"/>
<path fill-rule="evenodd" clip-rule="evenodd" d="M11.315 13.9681C11.315 14.1553 11.315 14.3424 11.4814 14.3424C11.6478 14.3424 11.6894 14.1553 11.6894 13.9681C11.6894 13.781 11.6894 13.781 11.4814 13.781C11.2734 13.781 11.315 13.781 11.315 13.9681Z" fill="white"/>
<path fill-rule="evenodd" clip-rule="evenodd" d="M9.31823 13.9681C9.31823 14.1553 9.31823 14.3424 9.48462 14.3424C9.65102 14.3424 9.73422 14.1553 9.73422 13.9681C9.73422 13.781 9.73422 13.781 9.56782 13.781C9.40143 13.781 9.40143 13.781 9.40143 13.9681H9.31823Z" fill="white"/>
<path fill-rule="evenodd" clip-rule="evenodd" d="M12.5838 12.8866C12.5838 13.0321 12.5838 13.2193 12.771 13.2193C12.857 13.1264 12.9147 13.011 12.9374 12.8866C12.9403 12.8631 12.9383 12.8392 12.9312 12.8165C12.9242 12.7939 12.9124 12.773 12.8967 12.7553C12.8809 12.7376 12.8615 12.7234 12.8399 12.7138C12.8182 12.7042 12.7947 12.6993 12.771 12.6995C12.5838 12.6995 12.5838 12.6995 12.5838 12.8866Z" fill="white"/>
<path fill-rule="evenodd" clip-rule="evenodd" d="M10.0463 12.8866C10.069 13.011 10.1267 13.1264 10.2127 13.2193C10.3016 13.2149 10.386 13.179 10.4508 13.118C10.5156 13.057 10.5565 12.975 10.5663 12.8866C10.5663 12.6995 10.3999 12.6995 10.2127 12.6995C10.189 12.6993 10.1655 12.7042 10.1438 12.7138C10.1221 12.7234 10.1028 12.7376 10.087 12.7553C10.0713 12.773 10.0595 12.7939 10.0525 12.8165C10.0454 12.8392 10.0433 12.8631 10.0463 12.8866Z" fill="white"/>
<path fill-rule="evenodd" clip-rule="evenodd" d="M12.5838 15.0699C12.5838 15.2571 12.5838 15.4026 12.771 15.4026C12.8673 15.3173 12.9269 15.1981 12.9374 15.0699C12.9403 15.0464 12.9383 15.0225 12.9312 14.9999C12.9242 14.9772 12.9124 14.9564 12.8967 14.9386C12.8809 14.9209 12.8615 14.9068 12.8399 14.8971C12.8182 14.8875 12.7947 14.8826 12.771 14.8828C12.5838 14.8828 12.5838 14.8828 12.5838 15.0699Z" fill="white"/>
<path fill-rule="evenodd" clip-rule="evenodd" d="M10.0463 15.0699C10.0568 15.1981 10.1164 15.3173 10.2127 15.4026C10.303 15.4028 10.3899 15.3684 10.4556 15.3065C10.5214 15.2447 10.561 15.16 10.5663 15.0699C10.4754 14.9663 10.3495 14.8997 10.2127 14.8828L10.0463 15.0699Z" fill="white"/>
<path fill-rule="evenodd" clip-rule="evenodd" d="M19.8636 8.54163C19.8636 8.68717 19.8636 8.87431 20.0508 8.87431C20.1368 8.78148 20.1945 8.66608 20.2172 8.54163L20.134 8.35449C20.0843 8.35449 20.0367 8.37421 20.0016 8.40931C19.9665 8.4444 19.9468 8.492 19.9468 8.54163H19.8636Z" fill="white"/>
<path fill-rule="evenodd" clip-rule="evenodd" d="M17.8461 8.54107C17.8461 8.68662 17.8461 8.87375 18.0541 8.87375C18.2621 8.87375 18.2413 8.68662 18.2413 8.54107L18.0541 8.35394C18.0278 8.35101 18.0012 8.35367 17.976 8.36175C17.9509 8.36983 17.9277 8.38315 17.908 8.40083C17.8884 8.4185 17.8727 8.44014 17.862 8.46431C17.8514 8.48849 17.8459 8.51465 17.8461 8.54107Z" fill="white"/>
<path fill-rule="evenodd" clip-rule="evenodd" d="M15.7037 8.54163C15.7128 8.62677 15.7507 8.70624 15.8113 8.76678C15.8718 8.82732 15.9513 8.86527 16.0365 8.87431C16.0365 8.87431 16.2445 8.68717 16.2445 8.54163C16.2445 8.39608 16.0365 8.35449 16.0365 8.35449C16.0365 8.35449 15.7037 8.35449 15.7037 8.54163Z" fill="white"/>
<path fill-rule="evenodd" clip-rule="evenodd" d="M18.9692 7.41862C18.9793 7.55896 19.0382 7.69136 19.1356 7.79289C19.302 7.79289 19.302 7.62655 19.302 7.41862C19.302 7.2107 19.302 7.21069 19.1356 7.21069L18.9692 7.41862Z" fill="white"/>
<path fill-rule="evenodd" clip-rule="evenodd" d="M16.5982 7.41862C16.5982 7.62655 16.5982 7.79289 16.7646 7.79289C16.931 7.79289 16.931 7.62655 16.931 7.41862C16.931 7.2107 16.931 7.21069 16.7646 7.21069C16.5982 7.21069 16.5982 7.2107 16.5982 7.41862Z" fill="white"/>
<path fill-rule="evenodd" clip-rule="evenodd" d="M18.9692 9.58109C18.9782 9.73407 19.0366 9.88002 19.1356 9.99694C19.2348 9.98191 19.3252 9.93154 19.3902 9.85512C19.4552 9.7787 19.4904 9.68138 19.4892 9.58109C19.4892 9.43555 19.302 9.43555 19.1356 9.43555C18.9692 9.43555 18.9692 9.43555 18.9692 9.58109Z" fill="white"/>
<path fill-rule="evenodd" clip-rule="evenodd" d="M16.5982 9.80981C16.5982 9.80981 16.5982 9.99694 16.7646 9.99694C16.931 9.99694 16.931 9.80981 16.931 9.80981C16.931 9.80981 16.931 9.43555 16.7646 9.43555C16.5982 9.43555 16.5982 9.58109 16.5982 9.80981Z" fill="white"/>
<path fill-rule="evenodd" clip-rule="evenodd" d="M26.2491 14.1553C26.2394 14.1783 26.235 14.2033 26.2362 14.2283C26.2374 14.2533 26.2443 14.2778 26.2563 14.2997C26.2683 14.3217 26.2851 14.3407 26.3055 14.3553C26.3259 14.3699 26.3493 14.3797 26.3739 14.384C26.5403 14.384 26.7691 14.384 26.7691 14.1969C26.7646 14.0915 26.7221 13.9914 26.6494 13.915C26.5768 13.8385 26.4789 13.7909 26.3739 13.781C26.2817 13.8859 26.2236 14.0165 26.2075 14.1553H26.2491Z" fill="white"/>
<path fill-rule="evenodd" clip-rule="evenodd" d="M24.294 14.1553C24.294 14.3424 24.502 14.3424 24.502 14.3424C24.502 14.3424 24.6684 14.3424 24.6684 14.1553C24.6684 13.9681 24.6684 13.781 24.502 13.781C24.392 13.8784 24.3186 14.0105 24.294 14.1553Z" fill="white"/>
<path fill-rule="evenodd" clip-rule="evenodd" d="M22.214 14.1552L22.422 14.3839C22.4483 14.3868 22.4749 14.3842 22.5 14.3761C22.5252 14.368 22.5484 14.3547 22.568 14.337C22.5877 14.3193 22.6034 14.2977 22.614 14.2735C22.6247 14.2494 22.6302 14.2232 22.63 14.1968C22.63 14.0096 22.63 13.8225 22.422 13.8225C22.3197 13.923 22.2538 14.0547 22.2348 14.1968L22.214 14.1552Z" fill="white"/>
<path fill-rule="evenodd" clip-rule="evenodd" d="M25.5212 13.0321C25.5212 13.2193 25.5212 13.2193 25.6876 13.2193C25.854 13.2193 25.8748 13.2193 25.8748 13.0321C25.8748 12.845 25.8748 12.6995 25.6876 12.6995C25.5004 12.6995 25.5212 12.8866 25.5212 13.0321Z" fill="white"/>
<path fill-rule="evenodd" clip-rule="evenodd" d="M23.15 13.0321C23.15 13.0321 23.15 13.2193 23.3164 13.2193L23.5244 13.0321C23.5244 12.8866 23.3164 12.6995 23.3164 12.6995C23.3164 12.6995 23.15 12.8866 23.15 13.0321Z" fill="white"/>
<path fill-rule="evenodd" clip-rule="evenodd" d="M25.5212 15.2571C25.521 15.2781 25.5253 15.2989 25.5339 15.318C25.5425 15.3372 25.5551 15.3543 25.5709 15.3681C25.5867 15.3819 25.6053 15.3922 25.6255 15.3981C25.6456 15.4041 25.6668 15.4056 25.6876 15.4026C25.8748 15.4026 25.8748 15.2571 25.8748 15.2571C25.8748 15.2571 25.8748 14.8828 25.6876 14.8828C25.5004 14.8828 25.5212 15.0699 25.5212 15.2571Z" fill="white"/>
<path fill-rule="evenodd" clip-rule="evenodd" d="M23.15 15.2571C23.15 15.4026 23.15 15.4026 23.3164 15.4026C23.4828 15.4026 23.5244 15.4026 23.5244 15.2571C23.4998 15.1123 23.4264 14.9802 23.3164 14.8828C23.15 14.8828 23.15 15.0699 23.15 15.2571Z" fill="white"/>
</svg>
