<svg width="60" height="36" viewBox="0 0 60 36" fill="none" xmlns="http://www.w3.org/2000/svg">
<path fill-rule="evenodd" clip-rule="evenodd" d="M59.7611 17.5696L56.5678 17.5696L48.5844 12.7779L46.9878 14.01L42.6539 11.1806L41.0116 12.0021L44.205 14.01L42.6539 14.6945L31.4316 8.35124L33.0739 7.21036L34.6706 8.35124L37.7727 6.34329L29.8806 1.91668L22.3078 6.34329L25.0449 8.35124L26.6872 7.21036L28.2383 8.35124L17.1072 14.6945L15.4649 14.01L18.7039 12.0021L17.1072 11.1806L12.7278 14.01L11.0855 12.7779L3.10211 17.5696L2.44342e-06 17.5696L11.0855 11.1806L12.7278 12.0021L17.1072 9.17268L20.3462 11.1806L23.5395 9.17268L18.7039 6.34329L29.8806 -4.15552e-06L41.0116 6.34329L36.2216 9.17267L39.415 11.1806L42.6539 9.17267L46.9878 12.0021L48.5844 11.1806L59.7611 17.5696Z" fill="#AF9442"/>
<path fill-rule="evenodd" clip-rule="evenodd" d="M20.346 17.5693L23.5394 16.7478L28.2381 16.7478L28.2381 14.0097L29.8804 12.0018L31.4315 14.0097L31.4315 16.7478L36.2215 16.7478L39.4148 17.5693L20.346 17.5693Z" fill="#AF9442"/>
<path fill-rule="evenodd" clip-rule="evenodd" d="M59.7611 17.5696L56.5678 17.5696L48.5844 22.3613L46.9878 21.1292L42.6539 23.9585L41.0116 23.1371L44.205 21.1292L42.6539 20.4446L31.4316 26.7879L33.0739 27.9288L34.6706 26.7879L37.7727 28.7959L29.8806 33.2225L22.3078 28.7959L25.0449 26.7879L26.6872 27.9288L28.2383 26.7879L17.1072 20.4446L15.4649 21.1292L18.7039 23.1371L17.1072 23.9585L12.7278 21.1292L11.0855 22.3613L3.10211 17.5696L2.44342e-06 17.5696L11.0855 23.9585L12.7278 23.1371L17.1072 25.9665L20.3462 23.9585L23.5395 25.9665L18.7039 28.7959L29.8806 35.1392L41.0116 28.7959L36.2216 25.9665L39.415 23.9585L42.6539 25.9665L46.9878 23.1371L48.5844 23.9585L59.7611 17.5696Z" fill="#AF9442"/>
<path fill-rule="evenodd" clip-rule="evenodd" d="M20.346 17.5699L23.5394 18.3913L28.2381 18.3913L28.2381 21.1294L29.8804 23.1374L31.4315 21.1294L31.4315 18.3913L36.2215 18.3913L39.4148 17.5699L20.346 17.5699Z" fill="#AF9442"/>
</svg>
