<svg width="36" height="25" viewBox="0 0 36 25" fill="none" xmlns="http://www.w3.org/2000/svg">
<path fill-rule="evenodd" clip-rule="evenodd" d="M14.7677 22.0203L13.3117 21.2717L12.0637 22.0203H14.7677Z" fill="white"/>
<path fill-rule="evenodd" clip-rule="evenodd" d="M18.9693 22.0203L17.4925 21.2717L16.2445 22.0203H18.9693Z" fill="white"/>
<path fill-rule="evenodd" clip-rule="evenodd" d="M23.1501 22.0203L21.6941 21.2717L20.4253 22.0203H23.1501Z" fill="white"/>
<path fill-rule="evenodd" clip-rule="evenodd" d="M14.7677 2.91235L13.3117 3.6193L12.0637 2.91235H14.7677Z" fill="white"/>
<path fill-rule="evenodd" clip-rule="evenodd" d="M18.9693 2.91235L17.4925 3.6193L16.2445 2.91235H18.9693Z" fill="white"/>
<path fill-rule="evenodd" clip-rule="evenodd" d="M23.1501 2.91235L21.6941 3.6193L20.4253 2.91235H23.1501Z" fill="white"/>
<path fill-rule="evenodd" clip-rule="evenodd" d="M15.8701 21.6045L17.4925 23.0807L19.1356 21.6045L20.758 23.0807L22.422 21.6045V22.353L21.3196 23.0807L21.902 23.6421V24.3491H21.3196L20.758 23.6421L20.2172 24.3491H19.6972V23.6421L20.2172 23.0807L19.1356 22.353L18.0749 23.0807L18.5949 23.6421V24.3491H18.0749L17.4925 23.6421L16.9309 24.3491H16.4109V23.6421L16.9309 23.0807L15.8701 22.353L14.7677 23.0807L15.3085 23.6421V24.3491H14.7677L14.3933 23.6421L13.8317 24.3491H13.3117V23.6421L13.8317 23.0807L12.7709 22.353V21.6045L14.3933 23.0807L15.8701 21.6045Z" fill="#307359"/>
<path fill-rule="evenodd" clip-rule="evenodd" d="M15.8701 2.72535L17.4925 1.45702L19.1356 2.72535L20.758 1.45702L22.422 2.72535V2.20554L21.3196 1.45702L21.902 0.93721V0.209473H21.3196L20.758 0.93721L20.2172 0.209473H19.6972V0.93721L20.2172 1.45702L19.1356 2.20554L18.0749 1.45702L18.5949 0.93721V0.209473H18.0749L17.4925 0.93721L16.9309 0.209473H16.4109V0.93721L16.9309 1.45702L15.8701 2.20554L14.7677 1.45702L15.3085 0.93721V0.209473H14.7677L14.3933 0.93721L13.8317 0.209473H13.3117V0.93721L13.8317 1.45702L12.7709 2.20554V2.72535L14.3933 1.45702L15.8701 2.72535Z" fill="#307359"/>
<path fill-rule="evenodd" clip-rule="evenodd" d="M3.66074 13.6202L1.87196 12.1856L3.66074 10.9172L1.87196 9.44098L3.66074 8.0271H2.76635L1.87196 8.92117L0.89438 8.54691H-5.96046e-06V8.92117L0.89438 9.44098L-5.96046e-06 9.81524V10.3766H0.89438L1.87196 9.81524L2.76635 10.9172L1.87196 11.8113L0.89438 11.2915H-5.96046e-06V11.8113L0.89438 12.1856L-5.96046e-06 12.747V13.2668H0.89438L1.87196 12.747L2.76635 13.6202L1.87196 14.5559L0.89438 14.1816H-5.96046e-06V14.5559L0.89438 15.1173L-5.96046e-06 15.6371V16.0114H0.89438L1.87196 15.6371L2.76635 16.5312H3.66074L1.87196 15.1173L3.66074 13.6202Z" fill="#307359"/>
<path fill-rule="evenodd" clip-rule="evenodd" d="M31.5115 13.6202L33.3419 12.1856L31.5115 10.9172L33.3419 9.44098L31.5115 8.0271H32.4475L33.3419 8.92117L34.2571 8.54691H35.0059V8.92117L34.2571 9.44098L35.0059 9.81524V10.3766H34.2571L33.3419 9.81524L32.4475 10.9172L33.3419 11.8113L34.2571 11.2915H35.0059V11.8113L34.2571 12.1856L35.0059 12.747V13.2668H34.2571L33.3419 12.747L32.4475 13.6202L33.3419 14.5559L34.2571 14.1816H35.0059V14.5559L34.2571 15.1173L35.0059 15.6371V16.0114H34.2571L33.3419 15.6371L32.4475 16.5312H31.5115L33.3419 15.1173L31.5115 13.6202Z" fill="#307359"/>
<path d="M2.20472 18.3818H2.93271V19.0888H2.20472V18.3818Z" fill="#307359"/>
<path d="M2.93275 19.0886H3.66074V19.7956H2.93275V19.0886Z" fill="#307359"/>
<path d="M6.38544 22.3533H7.11343V23.0602H6.38544V22.3533Z" fill="#307359"/>
<path d="M5.69911 21.6045H6.3855V22.353H5.69911V21.6045Z" fill="#307359"/>
<path d="M28.8075 21.6045H29.5147V22.353H28.8075V21.6045Z" fill="#307359"/>
<path d="M32.2394 18.3818H32.9674V19.0888H32.2394V18.3818Z" fill="#307359"/>
<path d="M31.5115 19.0886H32.2394V19.7956H31.5115V19.0886Z" fill="#307359"/>
<path d="M31.5115 4.72144H32.2394V5.46996H31.5115V4.72144Z" fill="#307359"/>
<path d="M32.2394 5.46948H32.9674V6.03087H32.2394V5.46948Z" fill="#307359"/>
<path d="M28.0587 1.45679H28.8075V2.20531H28.0587V1.45679Z" fill="#307359"/>
<path d="M28.8075 2.20581H29.5147V2.72562H28.8075V2.20581Z" fill="#307359"/>
<path d="M6.38544 1.45679H7.11343V2.20531H6.38544V1.45679Z" fill="#307359"/>
<path d="M5.69911 2.20581H6.3855V2.72562H5.69911V2.20581Z" fill="#307359"/>
<path d="M2.93275 4.72144H3.66074V5.46996H2.93275V4.72144Z" fill="#307359"/>
<path d="M2.20472 5.46948H2.93271V6.03087H2.20472V5.46948Z" fill="#307359"/>
<path d="M28.0587 22.3533H28.8075V23.0602H28.0587V22.3533Z" fill="#307359"/>
<path fill-rule="evenodd" clip-rule="evenodd" d="M19.6972 12.1858H21.7772V10.8759H20.5084V9.77387H19.0524V8.79663H17.7629V10.0442C18.0468 10.0437 18.3279 10.1013 18.5887 10.2135C18.8496 10.3257 19.0847 10.4901 19.2796 10.6966C19.4744 10.9031 19.6249 11.1473 19.7218 11.4141C19.8187 11.681 19.8599 11.9648 19.8428 12.2482L19.6972 12.1858Z" fill="white"/>
<path fill-rule="evenodd" clip-rule="evenodd" d="M15.7037 12.1858H13.4782V10.8759H14.9549V9.77387H16.2445V8.79663H17.6797V10.0442C17.3957 10.0437 17.1146 10.1013 16.8538 10.2135C16.593 10.3257 16.3579 10.4901 16.163 10.6966C15.9681 10.9031 15.8176 11.1473 15.7207 11.4141C15.6239 11.681 15.5827 11.9648 15.5997 12.2482L15.7037 12.1858Z" fill="#E0852A"/>
<path fill-rule="evenodd" clip-rule="evenodd" d="M15.7037 12.1855H13.4782V13.4539H14.9549V14.743H16.2445V15.7826H17.6797V14.5559C17.3872 14.5374 17.1013 14.4613 16.8383 14.332C16.5753 14.2028 16.3404 14.0229 16.1471 13.8026C15.9539 13.5824 15.806 13.3262 15.7121 13.0487C15.6182 12.7712 15.58 12.4778 15.5997 12.1855H15.7037Z" fill="white"/>
<path fill-rule="evenodd" clip-rule="evenodd" d="M19.6972 12.1855H21.7772V13.4539H20.5084V14.743H19.0524V15.7826H17.7629V14.5559C18.0553 14.5374 18.3413 14.4613 18.6043 14.332C18.8673 14.2028 19.1021 14.0229 19.2954 13.8026C19.4887 13.5824 19.6365 13.3262 19.7305 13.0487C19.8244 12.7712 19.8626 12.4778 19.8428 12.1855H19.6972Z" fill="#E0852A"/>
<path fill-rule="evenodd" clip-rule="evenodd" d="M15.7037 12.1857H17.7837V9.98169C17.2208 10.0136 16.6916 10.2598 16.3048 10.6697C15.9179 11.0796 15.7028 11.6221 15.7037 12.1857Z" fill="#307359"/>
<path fill-rule="evenodd" clip-rule="evenodd" d="M15.7037 12.1855H17.7837V14.5559C17.4912 14.5374 17.2053 14.4613 16.9423 14.332C16.6793 14.2028 16.4444 14.0229 16.2511 13.8026C16.0579 13.5824 15.91 13.3262 15.8161 13.0487C15.7222 12.7712 15.684 12.4778 15.7037 12.1855Z" fill="#C03F2A"/>
<path fill-rule="evenodd" clip-rule="evenodd" d="M19.6972 12.1855H17.6173V14.5559C17.9098 14.5374 18.1957 14.4613 18.4587 14.332C18.7217 14.2028 18.9566 14.0229 19.1498 13.8026C19.3431 13.5824 19.4909 13.3262 19.5849 13.0487C19.6788 12.7712 19.717 12.4778 19.6972 12.1855Z" fill="#307359"/>
<path fill-rule="evenodd" clip-rule="evenodd" d="M19.6972 12.1857H17.6172V9.98169C18.1801 10.0136 18.7093 10.2598 19.0962 10.6697C19.483 11.0796 19.6981 11.6221 19.6972 12.1857Z" fill="#C03F2A"/>
<path fill-rule="evenodd" clip-rule="evenodd" d="M15.4749 20.3572L17.4925 19.0889L19.6973 20.3572L21.694 19.0889L23.878 20.3572V19.8166L22.422 19.0889L23.15 18.3819V17.8206H22.422L21.694 18.3819L21.1324 17.8206H20.4252V18.3819L21.1324 19.0889L19.6973 19.8166L18.2413 19.0889L18.9693 18.3819V17.8206H18.2413L17.4925 18.3819L16.9309 17.8206H16.2445V18.3819L16.9309 19.0889L15.4749 19.8166L14.0397 19.0889L14.7677 18.3819V17.8206H14.0397L13.3118 18.3819L12.771 17.8206H12.0638V18.3819L12.771 19.0889L11.3358 19.8166V20.3572L13.3118 19.0889L15.4749 20.3572Z" fill="#307359"/>
<path fill-rule="evenodd" clip-rule="evenodd" d="M15.4749 4.15991L17.4925 5.46983L19.6973 4.15991L21.694 5.46983L23.878 4.15991V4.72131L22.422 5.46983L23.15 6.03122V6.69658H22.422L21.694 6.03122L21.1324 6.69658H20.4252V6.03122L21.1324 5.46983L19.6973 4.72131L18.2413 5.46983L18.9693 6.03122V6.69658H18.2413L17.4925 6.03122L16.9309 6.69658H16.2445V6.03122L16.9309 5.46983L15.4749 4.72131L14.0397 5.46983L14.7677 6.03122V6.69658H14.0397L13.3118 6.03122L12.771 6.69658H12.0638V6.03122L12.771 5.46983L11.3358 4.72131V4.15991L13.3118 5.46983L15.4749 4.15991Z" fill="#307359"/>
<path fill-rule="evenodd" clip-rule="evenodd" d="M7.84146 13.8075L8.75664 12.1857L7.84146 10.5431L8.75664 8.92129L7.84146 7.46582H8.38225L8.75664 8.54702L9.31823 8.02721H9.87982V8.54702L9.31823 8.92129L9.87982 9.44109V9.9609H9.31823L8.75664 9.44109L8.38225 10.5431L8.75664 11.6243L9.31823 11.1045H9.87982V11.6243L9.31823 12.1857L9.87982 12.7471V13.2669H9.31823L8.75664 12.7471L8.38225 13.8075L8.75664 14.8887L9.31823 14.3689H9.87982V14.8887L9.31823 15.4501L9.87982 16.0115V16.5313H9.31823L8.75664 16.0115L8.38225 17.0927H7.84146L8.75664 15.4501L7.84146 13.8075Z" fill="#307359"/>
<path fill-rule="evenodd" clip-rule="evenodd" d="M23.8779 4.63832L26.5819 7.46608V17.1137L23.8779 19.7959H11.3981L8.59017 17.1137V7.46608L11.3149 4.63832H23.8779ZM24.6059 2.55908L31.5114 9.29581V15.2632L24.6059 21.5009H10.5661L3.66065 15.2632V9.29581L10.5661 2.72542L24.6059 2.55908Z" fill="#307359"/>
<path fill-rule="evenodd" clip-rule="evenodd" d="M20.9453 20.3569L19.8637 21.6045L18.8029 20.3569H20.9453Z" fill="#E0852A"/>
<path fill-rule="evenodd" clip-rule="evenodd" d="M20.9453 4.16001L19.8637 2.72534L18.8029 4.16001H20.9453Z" fill="#E0852A"/>
<path fill-rule="evenodd" clip-rule="evenodd" d="M16.4109 4.16001L15.3086 2.72534L14.227 4.16001H16.4109Z" fill="#E0852A"/>
<path fill-rule="evenodd" clip-rule="evenodd" d="M16.4109 20.3569L15.3086 21.6045L14.227 20.3569H16.4109Z" fill="#E0852A"/>
<path fill-rule="evenodd" clip-rule="evenodd" d="M23.1501 4.16001L22.0269 2.72534L20.9453 4.16001H23.1501Z" fill="#C03F2A"/>
<path fill-rule="evenodd" clip-rule="evenodd" d="M18.8029 4.16001L17.4925 2.72534L16.4109 4.16001H18.8029Z" fill="#C03F2A"/>
<path fill-rule="evenodd" clip-rule="evenodd" d="M14.2269 4.16001L13.1453 2.72534L12.0637 4.16001H14.2269Z" fill="#C03F2A"/>
<path fill-rule="evenodd" clip-rule="evenodd" d="M25.8748 18.3818L23.878 20.3571H25.8748V18.3818Z" fill="#C03F2A"/>
<path fill-rule="evenodd" clip-rule="evenodd" d="M27.3307 13.8075L26.2492 12.1857L27.3307 10.5431L26.2492 8.92129L27.3307 7.46582H26.8108L26.2492 8.54702L25.8748 8.02721H25.3132V8.54702L25.8748 8.92129L25.3132 9.44109V9.9609H25.8748L26.2492 9.44109L26.8108 10.5431L26.2492 11.6243L25.8748 11.1045H25.3132V11.6243L25.8748 12.1857L25.3132 12.7471V13.2669H25.8748L26.2492 12.7471L26.8108 13.8075L26.2492 14.8887L25.8748 14.3689H25.3132V14.8887L25.8748 15.4501L25.3132 16.0115V16.5313H25.8748L26.2492 16.0115L26.8108 17.0927H27.3307L26.2492 15.4501L27.3307 13.8075Z" fill="#307359"/>
<path fill-rule="evenodd" clip-rule="evenodd" d="M7.11343 10.5435H4.20148L3.66068 11.1049L4.20148 11.6247H7.11343V10.5435Z" fill="#C03F2A"/>
<path fill-rule="evenodd" clip-rule="evenodd" d="M25.8748 6.03101L27.3307 7.46568V17.0925L25.8748 18.3817H28.0587V6.03101H25.8748Z" fill="#C03F2A"/>
<path fill-rule="evenodd" clip-rule="evenodd" d="M23.1501 20.3569L22.0269 21.6045L20.9453 20.3569H23.1501Z" fill="#C03F2A"/>
<path fill-rule="evenodd" clip-rule="evenodd" d="M18.8029 20.3569L17.4925 21.6045L16.4109 20.3569H18.8029Z" fill="#C03F2A"/>
<path fill-rule="evenodd" clip-rule="evenodd" d="M14.2269 20.3569L13.1453 21.6045L12.0637 20.3569H14.2269Z" fill="#C03F2A"/>
<path fill-rule="evenodd" clip-rule="evenodd" d="M9.11026 6.03101L7.84148 7.46568V17.0925L9.11026 18.3817H7.11349V6.03101H9.11026Z" fill="#C03F2A"/>
<path fill-rule="evenodd" clip-rule="evenodd" d="M9.11028 18.3818L11.3358 20.3571H9.11028V18.3818Z" fill="#C03F2A"/>
<path fill-rule="evenodd" clip-rule="evenodd" d="M9.11028 6.03122L11.3358 4.15991H9.11028V6.03122Z" fill="#C03F2A"/>
<path fill-rule="evenodd" clip-rule="evenodd" d="M25.8748 6.03122L23.878 4.15991H25.8748V6.03122Z" fill="#C03F2A"/>
<path fill-rule="evenodd" clip-rule="evenodd" d="M23.878 4.63805L26.582 7.46581V17.1135L23.878 19.7957H11.3982L8.59025 17.1135V7.46581L11.315 4.63805H23.878ZM23.878 4.07666L27.3307 7.46581V17.1135L23.878 20.3779H11.3982L7.84146 17.1135V7.46581L11.315 4.15983L23.878 4.07666Z" fill="#307359"/>
<path fill-rule="evenodd" clip-rule="evenodd" d="M7.11343 11.6245H4.20148L3.66068 12.1859L4.20148 12.8928H7.11343V11.6245Z" fill="#E0852A"/>
<path fill-rule="evenodd" clip-rule="evenodd" d="M7.11343 12.8926H4.20148L3.66068 13.454L4.20148 13.9946H7.11343V12.8926Z" fill="#C03F2A"/>
<path fill-rule="evenodd" clip-rule="evenodd" d="M7.11343 13.9946H4.20148L3.66068 14.556L4.20148 15.263H7.11343V13.9946Z" fill="#E0852A"/>
<path fill-rule="evenodd" clip-rule="evenodd" d="M7.11343 9.29565H4.20148L3.66068 9.96101L4.20148 10.5432H7.11343V9.29565Z" fill="#E0852A"/>
<path fill-rule="evenodd" clip-rule="evenodd" d="M28.0587 10.5435H30.7834L31.5114 11.1049L30.7834 11.6247H28.0587V10.5435Z" fill="#C03F2A"/>
<path fill-rule="evenodd" clip-rule="evenodd" d="M28.0587 11.6245H30.7834L31.5114 12.1859L30.7834 12.8928H28.0587V11.6245Z" fill="#E0852A"/>
<path fill-rule="evenodd" clip-rule="evenodd" d="M28.0587 12.8926H30.7834L31.5114 13.454L30.7834 13.9946H28.0587V12.8926Z" fill="#C03F2A"/>
<path fill-rule="evenodd" clip-rule="evenodd" d="M28.0587 13.9946H30.7834L31.5114 14.556L30.7834 15.263H28.0587V13.9946Z" fill="#E0852A"/>
<path fill-rule="evenodd" clip-rule="evenodd" d="M28.0587 9.29565H30.7834L31.5114 9.96101L30.7834 10.5432H28.0587V9.29565Z" fill="#E0852A"/>
<path fill-rule="evenodd" clip-rule="evenodd" d="M32.2394 5.47021V19.1932H28.8075V22.4576H6.38544V19.1932H2.9327V5.47021H6.38544V2.20581H28.8075V5.47021H32.2394ZM31.5115 6.03159V18.3823H28.0587V21.6051H7.11343V18.3823H3.66069V6.03159H7.11343V2.72562H28.0587V6.03159H31.5115Z" fill="#AB3B2C"/>
</svg>
