<svg width="36" height="26" viewBox="0 0 36 26" fill="none" xmlns="http://www.w3.org/2000/svg">
<path fill-rule="evenodd" clip-rule="evenodd" d="M33.3418 14.3973L32.2394 12.9627H25.6875L20.758 6.78735H14.2269L9.31817 12.9627H2.93267L1.87189 14.3973L2.93267 15.8528H9.31817L14.2269 22.2361H20.758L25.6875 15.8528H32.2394L33.3418 14.3973Z" fill="#C03F2A"/>
<path fill-rule="evenodd" clip-rule="evenodd" d="M32.8011 12.7756L32.2395 12.2142H25.5212L20.4253 6.24683H14.7678L9.65105 12.2142H2.93275L2.37116 12.7756L2.93275 13.3162H9.65105L14.227 18.5975H20.9453L25.5212 13.3162H32.2395L32.8011 12.7756Z" fill="#C03F2A"/>
<path fill-rule="evenodd" clip-rule="evenodd" d="M14.7677 13.3162L12.5837 15.6658L13.6653 16.9549L14.2269 16.4143H14.7677V16.8925L14.2269 17.641H13.1453L12.0638 16.3519V15.0836L14.1437 12.5261L12.0638 9.98945V8.88746L13.1453 7.61913H14.2269L14.7677 8.18052V8.88746H14.2269L13.6653 8.18052L12.5837 9.44885L14.7677 11.9647L16.8477 9.44885L14.7677 6.89139V6.49634H15.3085L17.4925 9.05379L19.6972 6.49634H20.134V7.05773L18.0541 9.61519L20.134 12.1311L22.422 9.51123L21.3404 8.24289L20.758 8.94983H20.134V8.24289L20.6748 7.6815H21.8188L22.9004 8.94983V10.0518L20.6748 12.5885L22.9836 15.146V16.4143L21.902 17.7034H20.758L20.134 16.8925V16.3519H20.758L21.3404 16.8925L22.422 15.6034L20.134 13.3162L18.0541 15.6658L20.134 18.2232V18.9717H19.614L17.4093 16.4559L15.3085 18.9717H14.7677V18.2648L16.8477 15.7073L14.7677 13.3162ZM17.4925 10.0518L19.6972 12.5885L17.4925 15.146L15.3085 12.5885L17.4925 10.0518Z" fill="#E0852A"/>
<path fill-rule="evenodd" clip-rule="evenodd" d="M20.758 19.4915V24.3777L20.2172 23.8578L19.6972 24.3777L19.1357 23.8578L18.5949 24.3777L18.0749 23.8578L17.4925 24.3777L16.9309 23.8578L16.4109 24.3777L15.8701 23.8578L15.3085 24.3777L14.7677 23.8578L14.2269 24.3777V19.4915H20.758Z" fill="#E0852A"/>
<path fill-rule="evenodd" clip-rule="evenodd" d="M14.2269 5.68556V0.778564L14.7677 1.33996L15.3085 0.778564L15.8701 1.33996L16.4109 0.778564L16.9309 1.33996L17.4925 0.778564L18.0749 1.33996L18.5949 0.778564L19.1357 1.33996L19.6972 0.778564L20.2172 1.33996L20.758 0.778564V5.68556H14.2269Z" fill="#E0852A"/>
<path fill-rule="evenodd" clip-rule="evenodd" d="M5.13741 11.3201V6.39233L5.699 6.97452L6.21899 6.39233L6.75979 6.97452L7.27978 6.39233L7.65417 6.97452L8.23657 6.39233L8.75656 6.97452L9.31815 6.39233V11.3201H5.13741Z" fill="#E0852A"/>
<path fill-rule="evenodd" clip-rule="evenodd" d="M25.6876 11.3201V6.39233L26.2492 6.97452L26.8107 6.39233L27.3307 6.97452L27.8715 6.39233L28.4123 6.97452L28.9739 6.39233L29.5147 6.97452L30.0347 6.39233V11.3201H25.6876Z" fill="#E0852A"/>
<path fill-rule="evenodd" clip-rule="evenodd" d="M5.13741 13.8779V18.9305L5.699 18.2235L6.21899 18.9305L6.75979 18.2235L7.27978 18.9305L7.65417 18.2235L8.23657 18.9305L8.75656 18.2235L9.31815 18.9305V13.8779H5.13741Z" fill="#E0852A"/>
<path fill-rule="evenodd" clip-rule="evenodd" d="M25.6876 13.8779V18.9305L26.2492 18.2235L26.8107 18.9305L27.3307 18.2235L27.8715 18.9305L28.4123 18.2235L28.9739 18.9305L29.5147 18.2235L30.0347 18.9305V13.8779H25.6876Z" fill="#E0852A"/>
<path fill-rule="evenodd" clip-rule="evenodd" d="M14.2269 19.4919V22.5691L13.6653 22.0493L13.1453 22.5691L12.5837 22.0493L12.0637 22.5691L11.4813 22.0493L10.9405 22.5691L10.3997 22.0493L9.87973 22.5691L9.31814 22.0493V13.8779L14.2269 19.4919Z" fill="#307359"/>
<path fill-rule="evenodd" clip-rule="evenodd" d="M20.758 19.4919V22.5691L21.3196 22.0493L21.902 22.5691L22.422 22.0493L22.9836 22.5691L23.5244 22.0493L24.0444 22.5691L24.6059 22.0493L25.1259 22.5691L25.6875 22.0493V13.8779L20.758 19.4919Z" fill="#307359"/>
<path fill-rule="evenodd" clip-rule="evenodd" d="M20.758 5.68543V2.60815L21.3196 3.31509L21.902 2.60815L22.422 3.31509L22.9836 2.60815L23.5244 3.31509L24.0444 2.60815L24.6059 3.31509L25.1259 2.60815L25.6875 3.31509V11.3202L20.758 5.68543Z" fill="#307359"/>
<path fill-rule="evenodd" clip-rule="evenodd" d="M14.2269 5.68543V2.60815L13.6653 3.31509L13.1453 2.60815L12.5837 3.31509L12.0637 2.60815L11.4813 3.31509L10.9405 2.60815L10.3997 3.31509L9.87973 2.60815L9.31814 3.31509V11.3202L14.2269 5.68543Z" fill="#307359"/>
<path fill-rule="evenodd" clip-rule="evenodd" d="M30.0347 17.7038L30.5963 16.9553L31.1579 17.7038L31.6986 16.9553L32.2394 17.7038L32.801 16.9553L33.3418 17.7038L33.8618 16.9553L34.4234 17.7038V7.68188L33.8618 8.24328L33.3418 7.68188L32.801 8.24328L32.2394 7.68188L31.6986 8.24328L31.1579 7.68188L30.5963 8.24328L30.0347 7.68188V11.3205H32.2394L33.3418 12.5889L32.2394 13.878H30.0347V17.7038Z" fill="#307359"/>
<path fill-rule="evenodd" clip-rule="evenodd" d="M5.13742 17.7038L4.57583 16.9553L4.05584 17.7038L3.49424 16.9553L2.93265 17.7038L2.37106 16.9553L1.87187 17.7038L1.31028 16.9553L0.727888 17.7038V7.68188L1.31028 8.24328L1.87187 7.68188L2.37106 8.24328L2.93265 7.68188L3.49424 8.24328L4.05584 7.68188L4.57583 8.24328L5.13742 7.68188V11.3205H2.93265L1.87187 12.5889L2.93265 13.878H5.13742V17.7038Z" fill="#307359"/>
<path fill-rule="evenodd" clip-rule="evenodd" d="M23.5244 19.8658C23.5244 19.8658 24.0444 20.4064 24.0444 20.5935C23.9772 20.7544 23.8781 20.9001 23.7529 21.0216C23.6278 21.1431 23.4793 21.238 23.3164 21.3005C23.1374 21.2815 22.9706 21.2004 22.8452 21.0712C22.7198 20.9421 22.6436 20.773 22.63 20.5935C22.63 20.4064 23.15 19.8658 23.15 19.8658V18.9717C23.15 18.9717 22.0269 20.6351 22.0269 19.9074C22.0269 19.1796 23.15 18.4519 23.15 18.4519H23.5244C23.5244 18.4519 24.606 19.5331 24.606 19.9074C24.606 20.6351 23.5244 18.9717 23.5244 18.9717V19.8658Z" fill="white"/>
<path fill-rule="evenodd" clip-rule="evenodd" d="M17.8461 21.8205C17.8461 21.8205 18.4077 22.3819 18.4077 22.7561C18.4077 23.1304 17.8461 23.8581 17.4925 23.8581C17.3023 23.7339 17.1396 23.572 17.0144 23.3825C16.8892 23.1929 16.8042 22.9798 16.7645 22.7561C16.7645 22.3819 17.3261 21.8205 17.3261 21.8205V20.4066C17.3261 20.4066 16.4109 22.4858 16.4109 21.6749C16.5506 20.9203 16.8639 20.2085 17.3261 19.5957H17.8461C17.8461 19.5957 18.9693 21.2175 18.8029 21.6749C18.8029 22.569 17.8461 20.4066 17.8461 20.4066V21.8205Z" fill="#C03F2A"/>
<path fill-rule="evenodd" clip-rule="evenodd" d="M22.4221 12.5882C22.4221 12.9625 22.9836 13.316 23.5244 13.316C24.0652 13.316 24.606 12.9625 24.606 12.5882C24.606 12.214 24.2316 12.0269 23.5244 12.0269C22.8172 12.0269 22.4221 12.214 22.4221 12.5882Z" fill="#307359"/>
<path fill-rule="evenodd" clip-rule="evenodd" d="M16.4109 12.5882C16.4109 12.9625 16.9309 13.316 17.4925 13.316C18.0541 13.316 18.5948 12.9625 18.5948 12.5882C18.5948 12.214 18.2413 12.0269 17.4925 12.0269C16.7437 12.0269 16.4109 12.214 16.4109 12.5882Z" fill="#307359"/>
<path fill-rule="evenodd" clip-rule="evenodd" d="M10.3998 12.5882C10.3998 12.9625 10.9406 13.316 11.4814 13.316C12.0221 13.316 12.5837 12.9625 12.5837 12.5882C12.5837 12.214 12.2509 12.0269 11.4814 12.0269C10.7118 12.0269 10.3998 12.214 10.3998 12.5882Z" fill="#307359"/>
<path fill-rule="evenodd" clip-rule="evenodd" d="M23.6908 5.49827C23.868 5.22725 23.9883 4.92308 24.0444 4.6042C24.0444 4.41707 23.6908 3.87646 23.5244 3.87646C23.358 3.87646 22.7964 4.41707 22.7964 4.6042C22.8525 4.92308 22.9728 5.22725 23.15 5.49827V6.4963C23.15 6.4963 22.2349 4.89529 22.2349 5.60223C22.2349 6.30917 23.15 7.05769 23.15 7.05769H23.6908C23.6908 7.05769 24.606 5.97649 24.606 5.60223C24.606 4.89529 23.6908 6.4963 23.6908 6.4963V5.49827Z" fill="white"/>
<path fill-rule="evenodd" clip-rule="evenodd" d="M18.054 3.48166C18.3115 3.17314 18.4963 2.81075 18.5948 2.42125C18.3855 2.02833 18.0679 1.70363 17.6796 1.4856C17.3261 1.4856 16.9309 2.04699 16.9309 2.42125C16.9309 2.79551 17.4925 3.48166 17.4925 3.48166V4.93712C17.4925 4.93712 16.4109 2.60838 16.4109 3.66879C16.4109 4.41731 17.4925 5.49852 17.4925 5.49852H18.054C18.054 5.49852 19.1356 4.04305 18.9692 3.66879C18.9692 2.60838 18.054 4.93712 18.054 4.93712V3.48166Z" fill="#C03F2A"/>
<path fill-rule="evenodd" clip-rule="evenodd" d="M11.8141 19.8658C11.8141 19.8658 12.3757 20.4064 12.3757 20.5935C12.3757 20.7806 11.8141 21.3005 11.6477 21.3005C11.4813 21.3005 10.899 20.9262 10.899 20.5935C10.899 20.2608 11.4397 19.8658 11.4397 19.8658V18.9717C11.4397 18.9717 10.3582 20.6351 10.3582 19.9074C10.3582 19.1796 11.4397 18.4519 11.4397 18.4519H11.8141C11.8141 18.4519 12.8957 19.5331 12.8957 19.9074C12.8957 20.6351 11.8141 18.9717 11.8141 18.9717V19.8658Z" fill="white"/>
<path fill-rule="evenodd" clip-rule="evenodd" d="M12.0637 5.49827C12.2409 5.22725 12.3612 4.92308 12.4173 4.6042C12.5837 4.41707 12.0637 3.87646 11.8557 3.87646C11.6477 3.87646 11.1277 4.41707 11.1277 4.6042C11.1838 4.92308 11.3041 5.22725 11.4813 5.49827V6.4963C11.4813 6.4963 10.5661 4.89529 10.5661 5.60223C10.5661 6.30917 11.4813 7.05769 11.4813 7.05769H12.0637C12.0637 7.05769 12.9373 5.97649 12.9373 5.60223C12.9373 4.89529 12.0637 6.4963 12.0637 6.4963V5.49827Z" fill="white"/>
<path fill-rule="evenodd" clip-rule="evenodd" d="M28.2459 16.4144C28.2459 16.4144 28.9739 16.955 28.9739 17.1422C28.9739 17.3293 28.2459 17.8491 28.0587 17.8491C27.8616 17.8106 27.6763 17.7267 27.5174 17.604C27.3585 17.4812 27.2305 17.3231 27.1435 17.1422C27.1435 16.955 27.7051 16.4144 27.7051 16.4144V15.5204C27.7051 15.5204 26.5819 16.955 26.5819 16.2273C26.5819 15.8531 27.7051 14.959 27.7051 14.959H28.2459C28.2459 14.959 29.5147 16.0194 29.3483 16.2273C29.3483 16.955 28.2459 15.5204 28.2459 15.5204V16.4144Z" fill="#C03F2A"/>
<path fill-rule="evenodd" clip-rule="evenodd" d="M28.4539 9.32412C28.4539 9.32412 29.0155 8.94985 29.0155 8.57559C28.9285 8.39467 28.8005 8.23654 28.6416 8.11381C28.4827 7.99108 28.2974 7.90713 28.1003 7.86865C27.9032 7.90713 27.7179 7.99108 27.559 8.11381C27.4001 8.23654 27.2721 8.39467 27.1851 8.57559C27.1851 8.94985 27.9339 9.32412 27.9339 9.32412V10.239C27.9339 10.239 26.8523 8.76272 26.8523 9.51125C26.8523 9.84392 27.9339 10.7588 27.9339 10.7588H28.4539C28.4539 10.7588 29.7435 9.69838 29.5563 9.51125C29.5563 8.76272 28.4539 10.239 28.4539 10.239V9.32412Z" fill="#C03F2A"/>
<path fill-rule="evenodd" clip-rule="evenodd" d="M7.27984 16.2273C7.27984 16.2273 7.84143 16.7679 7.84143 16.9551C7.84143 17.1422 7.27984 17.7036 6.94705 17.7036C6.61425 17.7036 6.05266 17.1422 6.05266 16.9551C6.05266 16.7679 6.75985 16.2273 6.75985 16.2273V15.3332C6.75985 15.3332 5.69907 16.7679 5.69907 16.2273C5.69907 15.6867 6.75985 14.959 6.75985 14.959H7.27984C7.27984 14.959 8.59022 15.8531 8.38222 16.2273C8.17423 16.6016 7.27984 15.3332 7.27984 15.3332V16.2273Z" fill="#C03F2A"/>
<path fill-rule="evenodd" clip-rule="evenodd" d="M7.46707 9.13698C7.46707 9.13698 8.02866 8.76272 8.02866 8.38846C8.02866 8.0142 7.46707 7.86865 7.11347 7.86865C6.75988 7.86865 6.21909 8.24291 6.21909 8.38846C6.21909 8.53401 6.94708 9.13698 6.94708 9.13698V10.0518C6.94708 10.0518 5.86549 8.57559 5.86549 9.32411C5.86549 9.69838 6.94708 10.6132 6.94708 10.6132H7.46707C7.46707 10.6132 8.75665 9.51125 8.59025 9.32411C8.59025 8.57559 7.46707 10.0518 7.46707 10.0518V9.13698Z" fill="#C03F2A"/>
<path fill-rule="evenodd" clip-rule="evenodd" d="M32.801 16.4143C32.8949 16.1237 32.8949 15.8109 32.801 15.5203C32.9674 15.3331 32.2394 14.7717 32.073 14.7717C31.9066 14.7717 31.5114 15.3331 31.5114 15.5203V16.4143L31.9066 15.6658C32.2394 16.7678 32.2394 16.7678 32.4474 15.6658L32.801 16.4143Z" fill="white"/>
<path fill-rule="evenodd" clip-rule="evenodd" d="M32.801 9.13692C32.8854 9.43603 32.8854 9.75267 32.801 10.0518C32.801 10.2389 32.2394 10.7587 32.073 10.7587C31.9066 10.7587 31.5114 10.2389 31.5114 9.84386V9.13692L31.9066 9.84386C32.2394 8.76266 32.2394 8.76266 32.4474 9.84386L32.801 9.13692Z" fill="white"/>
<path fill-rule="evenodd" clip-rule="evenodd" d="M3.28633 16.2272C3.44895 15.9588 3.5218 15.6457 3.49433 15.3331C3.49433 15.146 2.93274 14.7717 2.76634 14.7717C2.56884 14.7813 2.38165 14.8626 2.23993 15.0005C2.09821 15.1383 2.01173 15.3232 1.99676 15.5203C2.00436 15.8293 2.07514 16.1336 2.20475 16.4143L2.37115 15.6658C2.76634 16.5807 2.76634 16.5807 2.93274 15.5203L3.28633 16.2272Z" fill="white"/>
<path fill-rule="evenodd" clip-rule="evenodd" d="M20.9453 24.565V22.7561H26.0828V19.3046H30.5339V18.0362H34.4443V7.30739H30.5339V6.24698H26.0828V2.60832H20.9453V0.965729H14.227V2.60832H9.11027V6.24698H4.57594V7.30739H0.727997V18.0362H4.57594V19.3046H9.11027V22.7561H14.227V24.565H20.9453ZM21.5277 25.1264V23.4838H26.582V19.866H31.1579V18.5976H35.0059V6.76679H31.1579V5.68559H26.582V2.04693H21.5277V0.258789H13.6654V2.06772H8.59027V5.70638H4.05594V6.78758H7.62939e-06V18.6184H4.05594V19.8868H8.59027V23.5046H13.6654V25.2096L21.5277 25.1264Z" fill="#C03F2A"/>
<path fill-rule="evenodd" clip-rule="evenodd" d="M3.28628 9.13714C3.42407 9.34702 3.49646 9.59305 3.49428 9.84408C3.49428 10.2391 2.93268 10.6134 2.76629 10.6134C2.59989 10.6134 1.9967 10.052 1.9967 9.84408V8.95001L2.37109 9.69853C2.76629 8.57575 2.76629 8.57575 2.93268 9.69853L3.28628 9.13714Z" fill="white"/>
</svg>
