<svg width="20" height="21" viewBox="0 0 20 21" fill="none" xmlns="http://www.w3.org/2000/svg">
<path d="M15.1432 2.29419H9.4279C9.26207 2.29419 9.12769 2.42861 9.12769 2.5944C9.12769 2.7602 9.26207 2.89462 9.4279 2.89462H15.1432C15.309 2.89462 15.4434 2.7602 15.4434 2.5944C15.4434 2.42861 15.309 2.29419 15.1432 2.29419Z" fill="#F1F1F1"/>
<path d="M15.1432 3.69507H9.4279C9.26207 3.69507 9.12769 3.82949 9.12769 3.99528C9.12769 4.16108 9.26207 4.2955 9.4279 4.2955H15.1432C15.309 4.2955 15.4434 4.16108 15.4434 3.99528C15.4434 3.82945 15.309 3.69507 15.1432 3.69507Z" fill="#F1F1F1"/>
<path d="M18.6898 5.41062H18.6499V4.69171C18.6499 4.21312 18.2606 3.82376 17.782 3.82376H17.4966V3.2961C17.4966 3.13031 17.3622 2.99589 17.1964 2.99589C17.0305 2.99589 16.8962 3.13031 16.8962 3.2961V5.41062H7.67479V0.838841C7.67479 0.707357 7.78175 0.600431 7.9132 0.600431H16.6578C16.7892 0.600431 16.8962 0.707397 16.8962 0.838841V1.89263C16.8962 2.05843 17.0306 2.19285 17.1964 2.19285C17.3623 2.19285 17.4966 2.05843 17.4966 1.89263V0.838841C17.4966 0.376278 17.1203 0 16.6578 0H7.9132C7.45067 0 7.0744 0.376278 7.0744 0.838841V3.8238H6.78899C6.44616 3.8238 6.14919 4.02363 6.00823 4.31292C5.73684 4.07044 5.37913 3.9227 4.98742 3.9227H2.95265C2.12227 3.9227 1.44432 4.58607 1.41981 5.41066H1.31018C0.587741 5.41066 0 5.9984 0 6.72083V17.2555C0 17.9779 0.587741 18.5657 1.31018 18.5657H1.41981C1.44432 19.3902 2.12227 20.0535 2.95265 20.0535H4.98738C5.8178 20.0535 6.49574 19.3902 6.52026 18.5656H18.6898C19.4123 18.5656 20 17.9778 20 17.2554V6.72076C20 5.99836 19.4122 5.41062 18.6898 5.41062ZM17.4966 4.42419H17.782C17.9295 4.42419 18.0495 4.5442 18.0495 4.69171V5.41062H17.4966V4.42419H17.4966ZM6.78895 4.42419H7.07436V5.41062H6.5214V4.69171C6.52144 4.54416 6.64144 4.42419 6.78895 4.42419ZM0.600392 17.2554V6.72076C0.600392 6.3294 0.91882 6.01101 1.31018 6.01101H1.41863V6.58931C1.41863 7.99188 1.61098 8.88654 1.70968 9.72597V14.2404C1.3309 16.1169 1.43688 17.4486 1.41863 17.9652H1.31018C0.91882 17.9652 0.600392 17.6468 0.600392 17.2554ZM5.921 18.5195C5.921 19.0343 5.50215 19.4531 4.98738 19.4531H2.95265C2.43784 19.4531 2.01906 19.0343 2.01906 18.5195C2.04695 17.5703 1.91069 16.2586 2.30404 14.3306C2.30808 14.3108 2.31011 14.2907 2.31011 14.2706V9.70564C2.31011 9.69213 2.30921 9.67858 2.30737 9.66518C2.20922 8.83409 2.01906 7.94641 2.01906 6.58931V5.45668C2.01906 4.94187 2.43788 4.52305 2.95265 4.52305H4.98738C5.50219 4.52305 5.921 4.94187 5.921 5.45668V5.71083V6.58935C5.921 7.94116 5.73457 8.80237 5.63269 9.66522C5.63085 9.67861 5.62995 9.69217 5.62995 9.70568V14.2705C5.62995 14.2907 5.63199 14.3108 5.63602 14.3305C6.02907 16.2573 5.89288 17.5622 5.921 18.5195ZM19.3996 17.2554C19.3996 17.6468 19.0811 17.9652 18.6898 17.9652H6.52143C6.50404 17.474 6.60952 16.1191 6.23038 14.2404V9.72597C6.32959 8.88219 6.52143 7.99647 6.52143 6.58931V6.01101H18.6898C19.0812 6.01101 19.3996 6.3294 19.3996 6.72076V17.2554H19.3996Z" fill="#F1F1F1"/>
<path d="M16.3208 7.35254H8.25015C7.86514 7.35254 7.55188 7.66576 7.55188 8.05081V9.93396C7.55188 10.319 7.86514 10.6322 8.25015 10.6322H9.65355C9.81938 10.6322 9.95376 10.4978 9.95376 10.332C9.95376 10.1662 9.81938 10.0318 9.65355 10.0318H8.25015C8.19618 10.0318 8.15227 9.9879 8.15227 9.93396V8.05081C8.15227 7.99684 8.19618 7.95297 8.25015 7.95297H16.3208C16.3747 7.95297 16.4186 7.99688 16.4186 8.05081V9.93396C16.4186 9.98793 16.3747 10.0318 16.3208 10.0318H11.0571C10.8912 10.0318 10.7568 10.1662 10.7568 10.332C10.7568 10.4978 10.8912 10.6322 11.0571 10.6322H16.3208C16.7058 10.6322 17.019 10.319 17.019 9.93396V8.05081C17.0191 7.6658 16.7059 7.35254 16.3208 7.35254Z" fill="#F1F1F1"/>
<path d="M8.92574 11.6086H8.13567C7.81375 11.6086 7.55188 11.8705 7.55188 12.1924V12.9527C7.55188 13.2746 7.81379 13.5365 8.13567 13.5365H8.92574C9.24766 13.5365 9.50949 13.2746 9.50949 12.9527V12.1924C9.50949 11.8705 9.24762 11.6086 8.92574 11.6086ZM8.9091 12.9361H8.15231V12.209H8.9091V12.9361Z" fill="#F1F1F1"/>
<path d="M11.429 11.6086H10.6389C10.317 11.6086 10.0551 11.8705 10.0551 12.1924V12.9527C10.0551 13.2746 10.317 13.5365 10.6389 13.5365H11.429C11.7509 13.5365 12.0128 13.2746 12.0128 12.9527V12.1924C12.0128 11.8705 11.7509 11.6086 11.429 11.6086ZM11.4124 12.9361H10.6555V12.209H11.4124V12.9361Z" fill="#F1F1F1"/>
<path d="M13.9321 11.6086H13.142C12.8201 11.6086 12.5582 11.8705 12.5582 12.1924V12.9527C12.5582 13.2746 12.8201 13.5365 13.142 13.5365H13.9321C14.254 13.5365 14.5159 13.2746 14.5159 12.9527V12.1924C14.5159 11.8705 14.254 11.6086 13.9321 11.6086ZM13.9155 12.9361H13.1587V12.209H13.9155V12.9361Z" fill="#F1F1F1"/>
<path d="M16.4353 11.6086H15.6452C15.3233 11.6086 15.0615 11.8705 15.0615 12.1924V12.9527C15.0615 13.2746 15.3233 13.5365 15.6452 13.5365H16.4353C16.7572 13.5365 17.0191 13.2746 17.0191 12.9527V12.1924C17.0191 11.8705 16.7572 11.6086 16.4353 11.6086ZM16.4187 12.9361H15.6619V12.209H16.4187V12.9361Z" fill="#F1F1F1"/>
<path d="M8.92574 14.4631H8.13567C7.81375 14.4631 7.55188 14.725 7.55188 15.0469V15.8072C7.55188 16.1291 7.81379 16.391 8.13567 16.391H8.92574C9.24766 16.391 9.50949 16.1291 9.50949 15.8072V15.0469C9.50949 14.725 9.24762 14.4631 8.92574 14.4631ZM8.9091 15.7906H8.15231V15.0636H8.9091V15.7906Z" fill="#F1F1F1"/>
<path d="M11.429 14.4631H10.6389C10.317 14.4631 10.0551 14.725 10.0551 15.0469V15.8072C10.0551 16.1291 10.317 16.391 10.6389 16.391H11.429C11.7509 16.391 12.0128 16.1291 12.0128 15.8072V15.0469C12.0128 14.725 11.7509 14.4631 11.429 14.4631ZM11.4124 15.7906H10.6555V15.0636H11.4124V15.7906Z" fill="#F1F1F1"/>
<path d="M13.9321 14.4631H13.142C12.8201 14.4631 12.5582 14.725 12.5582 15.0469V15.8072C12.5582 16.1291 12.8201 16.391 13.142 16.391H13.9321C14.254 16.391 14.5159 16.1291 14.5159 15.8072V15.0469C14.5159 14.725 14.254 14.4631 13.9321 14.4631ZM13.9155 15.7906H13.1587V15.0636H13.9155V15.7906Z" fill="#F1F1F1"/>
<path d="M16.4353 14.4631H15.6452C15.3233 14.4631 15.0615 14.725 15.0615 15.0469V15.8072C15.0615 16.1291 15.3233 16.391 15.6452 16.391H16.4353C16.7572 16.391 17.0191 16.1291 17.0191 15.8072V15.0469C17.0191 14.725 16.7572 14.4631 16.4353 14.4631ZM16.4187 15.7906H15.6619V15.0636H16.4187V15.7906Z" fill="#F1F1F1"/>
</svg>
