<svg width="36" height="26" viewBox="0 0 36 26" fill="none" xmlns="http://www.w3.org/2000/svg">
<path fill-rule="evenodd" clip-rule="evenodd" d="M23.3164 0.794922L35.0059 7.51086V19.009L23.3164 25.725H11.6894L7.62939e-06 19.009V7.51086L11.6894 0.794922H23.3164Z" fill="#307359"/>
<path fill-rule="evenodd" clip-rule="evenodd" d="M30.7835 10.5882H30.0347V8.98716H28.6203V10.5882H27.8715V6.80396H28.6203V8.42577H30.0347V6.80396H30.7835V10.5882Z" fill="#CF3B1D"/>
<path fill-rule="evenodd" clip-rule="evenodd" d="M12.9373 23.5003H12.251V21.8992H10.7326V23.5003H10.0462V19.7161H10.7326V21.3379H12.251V19.7161H12.9373V23.5003Z" fill="#CF3B1D"/>
<path fill-rule="evenodd" clip-rule="evenodd" d="M7.27988 10.5882H6.55189V8.98716H5.13751V10.5882H4.38872V6.80396H5.13751V8.42577H6.55189V6.80396H7.27988V10.5882Z" fill="#CF3B1D"/>
<path fill-rule="evenodd" clip-rule="evenodd" d="M7.27988 17.1582H6.55189V15.5156H5.13751V17.1582H4.38872V13.1453H5.13751V14.9958H6.55189V13.1453H7.27988V17.1582Z" fill="#CF3B1D"/>
<path fill-rule="evenodd" clip-rule="evenodd" d="M17.4925 25.1632V13.1453H0.727922V18.6344L11.8558 25.1632H17.4925Z" fill="#E0852A"/>
<path fill-rule="evenodd" clip-rule="evenodd" d="M17.4924 1.3562V13.1455H34.4234V7.88499L23.1499 1.3562H17.4924Z" fill="#E0852A"/>
<path fill-rule="evenodd" clip-rule="evenodd" d="M17.4925 1.3562V13.1455H0.727922V7.88499L11.8558 1.3562H17.4925Z" fill="white"/>
<path fill-rule="evenodd" clip-rule="evenodd" d="M17.4924 25.1632V13.1453H34.4234V18.6344L23.1499 25.1632H17.4924Z" fill="white"/>
<path fill-rule="evenodd" clip-rule="evenodd" d="M8.59024 8.4256H1.87194L8.59024 5.1612V8.4256ZM0.727964 7.88499V13.1455H11.3358V8.98699H13.6654L16.4109 7.32359V3.53939L14.7677 1.89681H16.8477V7.32359H17.4093V1.3562H11.8142L0.727964 7.88499Z" fill="#E0852A"/>
<path fill-rule="evenodd" clip-rule="evenodd" d="M23.15 9.50718V16.9716H21.5277L17.4925 19.1548L13.6654 16.9716H11.8558V9.50718H13.6654L17.4925 7.32397L21.5277 9.50718H23.15Z" fill="#C03F2A"/>
<path fill-rule="evenodd" clip-rule="evenodd" d="M26.5819 18.0731H33.3418L26.5819 21.3374V18.0731ZM34.4442 18.6344V13.1453H23.6908V17.5324H21.6108L18.8861 19.1542V22.98L20.5084 24.6226H18.3245V19.0919H17.5757V25.1009H23.15L34.4442 18.6344Z" fill="#E0852A"/>
<path fill-rule="evenodd" clip-rule="evenodd" d="M26.5819 8.4256H33.3418L26.5819 5.1612V8.4256ZM34.4442 7.88499V13.1455H23.6908V8.98699H21.6108L18.8861 7.32359V3.53939L20.5084 1.89681H18.3245V7.32359H17.5757V1.3562H23.15L34.4442 7.88499Z" fill="white"/>
<path fill-rule="evenodd" clip-rule="evenodd" d="M8.59024 18.0731H1.87194L8.59024 21.3375V18.0731ZM0.727962 18.6344V13.1453H11.3358V17.5324H13.6654L16.4109 19.0919V22.9177L14.7677 24.5603H16.8477V19.0919H17.4093V25.1009H11.8142L0.727962 18.6344Z" fill="white"/>
<path fill-rule="evenodd" clip-rule="evenodd" d="M31.1579 17.5326H30.4299V15.89H28.9739V17.5326H28.2459V13.7068H28.9739V15.3286H30.4299V13.7068H31.1579V17.5326Z" fill="#C03F2A"/>
<path fill-rule="evenodd" clip-rule="evenodd" d="M24.4396 22.9803H23.6908V21.3377H22.2348V22.9803H21.5277V19.1545H22.2348V20.7763H23.6908V19.1545H24.4396V22.9803Z" fill="#C03F2A"/>
<path fill-rule="evenodd" clip-rule="evenodd" d="M31.1579 8.98706H30.4299V10.5881H28.9739V8.98706H28.2459V12.7713H28.9739V11.1495H30.4299V12.7713H31.1579V8.98706Z" fill="#C03F2A"/>
<path fill-rule="evenodd" clip-rule="evenodd" d="M24.4396 3.53955H23.6908V5.16136H22.2348V3.53955H21.5277V7.32375H22.2348V5.72275H23.6908V7.32375H24.4396V3.53955Z" fill="#C03F2A"/>
<path fill-rule="evenodd" clip-rule="evenodd" d="M6.94702 12.7713H6.21903V11.1495H4.76305V12.7713H4.05586V8.98706H4.76305V10.5881H6.21903V8.98706H6.94702V12.7713Z" fill="#C03F2A"/>
<path fill-rule="evenodd" clip-rule="evenodd" d="M13.6653 22.9803H12.9374V21.3377H11.4814V22.9803H10.7326V19.1545H11.4814V20.7763H12.9374V19.1545H13.6653V22.9803Z" fill="#C03F2A"/>
<path fill-rule="evenodd" clip-rule="evenodd" d="M6.94702 17.5326H6.21903V15.89H4.76305V17.5326H4.05586V13.7068H4.76305V15.3286H6.21903V13.7068H6.94702V17.5326Z" fill="#C03F2A"/>
<path fill-rule="evenodd" clip-rule="evenodd" d="M13.6653 7.32375H12.9374V5.72275H11.4814V7.32375H10.7326V3.53955H11.4814V5.16136H12.9374V3.53955H13.6653V7.32375Z" fill="#C03F2A"/>
<path fill-rule="evenodd" clip-rule="evenodd" d="M16.9308 13.1456L14.7677 11.3367H13.6653V12.2515H14.7677V12.7713H13.1453V10.7753H14.7677V9.31982H16.9308V10.7753H16.4109V9.69409H15.3085V10.7753L17.4924 12.7713L19.8636 10.7753V9.69409H18.8028V10.7753H18.2412V9.31982H20.4252V10.7753H22.0268V12.7713H20.4252V12.2515H21.5276V11.3367H20.4252L18.2412 13.1456L20.4252 15.1625H21.5276V14.2268H20.4252V13.707H22.0268V15.7031H20.4252V17.1585H18.2412V15.7031H18.8028V16.8259H19.8636V15.7031L17.4924 13.707L15.3085 15.7031V16.8259H16.4109V15.7031H16.9308V17.1585H14.7677V15.7031H13.1453V13.707H14.7677V14.2268H13.6653V15.1625H14.7677L16.9308 13.1456Z" fill="#307359"/>
<path fill-rule="evenodd" clip-rule="evenodd" d="M13.6653 22.9803H12.9374V21.3377H11.4814V22.9803H10.7326V19.1545H11.4814V20.7763H12.9374V19.1545H13.6653V22.9803Z" fill="#C03F2A"/>
</svg>
