<svg width="36" height="28" viewBox="0 0 36 28" fill="none" xmlns="http://www.w3.org/2000/svg">
<path fill-rule="evenodd" clip-rule="evenodd" d="M7.62939e-06 10.5417L2.20477 7.27732V4.90699L4.20154 2.37033H8.59027L12.0638 0H23.15L26.582 2.37033H30.7835L32.9675 4.90699V7.27732L35.0059 10.5417V16.925L32.9675 20.1478V22.5181L30.7835 24.8884H26.582L23.15 27.2588H12.0638L8.59027 24.8884H4.20154L2.20477 22.5181V20.1478L7.62939e-06 16.925V10.5417Z" fill="#C03F2A"/>
<path fill-rule="evenodd" clip-rule="evenodd" d="M34.4234 13.6189V15.9892L32.2394 19.2536V21.624L30.2634 24.1606H25.8747L22.422 26.5309H17.4924V13.6189H34.4234Z" fill="#E0852A"/>
<path fill-rule="evenodd" clip-rule="evenodd" d="M23.5244 19.2539L26.0828 21.2708H27.4972L26.9772 21.9985L28.0587 23.4124L27.4972 24.1609L26.0828 23.4124L25.5212 24.1609L25.3132 22.3312L22.422 20.148L23.5244 19.2539Z" fill="#C03F2A"/>
<path fill-rule="evenodd" clip-rule="evenodd" d="M26.2491 17.6111L28.8075 19.8151H30.4299L29.9099 20.3765L30.7835 21.8111L30.4299 22.5181L28.8075 21.8111L28.2459 22.5181L28.0587 20.7091L25.3132 18.5467L26.2491 17.6111Z" fill="#C03F2A"/>
<path fill-rule="evenodd" clip-rule="evenodd" d="M27.7051 14.5129L30.2635 16.5506H31.6986L31.1579 17.2575L32.2394 18.5467L31.6986 19.2536L30.2635 18.5467L29.7019 19.2536L29.5147 17.4447L26.5819 15.2823L27.7051 14.5129Z" fill="#C03F2A"/>
<path fill-rule="evenodd" clip-rule="evenodd" d="M0.727922 13.6191V11.228L2.93269 7.98435V5.63482L4.92946 3.26449H9.1102L12.7709 0.707031H17.4925V13.6191H0.727922Z" fill="#E0852A"/>
<path fill-rule="evenodd" clip-rule="evenodd" d="M17.4925 26.5313H18.9693L20.4253 24.8887H22.7964L24.0444 24.1609L23.3164 23.2669L22.0268 24.1609H20.7581L19.4893 21.6243L17.4925 22.5183V24.1609H19.4893L17.4925 26.5313Z" fill="#C03F2A"/>
<path fill-rule="evenodd" clip-rule="evenodd" d="M34.4234 13.6191V11.228L32.2394 7.98435V5.63482L30.2634 3.26449H25.8747L22.422 0.707031H17.4924V13.6191H34.4234Z" fill="white"/>
<path fill-rule="evenodd" clip-rule="evenodd" d="M17.4925 0.707031H18.9693L20.4253 2.37042H22.7964L24.0444 3.26449L23.3164 3.97143L22.0268 3.26449H20.7581L19.4893 5.63482L17.4925 4.90708V3.26449H19.4893L17.4925 0.707031Z" fill="#C03F2A"/>
<path fill-rule="evenodd" clip-rule="evenodd" d="M17.4925 0.707031H16.2445L14.7677 2.37042H12.4173L11.107 3.26449L11.6894 3.97143L13.1453 3.26449H14.3933L15.7037 5.63482L17.4925 4.90708V3.26449H15.7037L17.4925 0.707031Z" fill="#C03F2A"/>
<path fill-rule="evenodd" clip-rule="evenodd" d="M0.727922 13.6189V15.9892L2.93269 19.2536V21.624L4.92946 24.1606H9.1102L12.7709 26.5309H17.4925V13.6189H0.727922Z" fill="white"/>
<path fill-rule="evenodd" clip-rule="evenodd" d="M17.4925 26.5313H16.2445L14.7677 24.8887H12.4173L11.107 24.1609L11.6894 23.2669L13.1453 24.1609H14.3933L15.7037 21.6243L17.4925 22.5183V24.1609H15.7037L17.4925 26.5313Z" fill="#C03F2A"/>
<path fill-rule="evenodd" clip-rule="evenodd" d="M26.2491 9.6063L28.8075 7.61023H30.4299L29.9099 6.90329L30.7835 5.44783L30.4299 4.90723L28.8075 5.44783L28.2459 4.90723L28.0587 6.71616L25.3132 8.89936L26.2491 9.6063Z" fill="#C03F2A"/>
<path fill-rule="evenodd" clip-rule="evenodd" d="M11.6894 7.98451L9.11029 5.96765H7.65431L8.0287 5.26071L7.11351 3.97159L7.65431 3.26465L9.11029 3.97159L9.65107 3.26465L9.87987 5.07358L12.771 7.27757L11.6894 7.98451Z" fill="#C03F2A"/>
<path fill-rule="evenodd" clip-rule="evenodd" d="M23.5244 7.98451L26.0828 5.96765H27.4972L26.9772 5.26071L28.0587 3.97159L27.4972 3.26465L26.0828 3.97159L25.5212 3.26465L25.3132 5.07358L22.422 7.27757L23.5244 7.98451Z" fill="#C03F2A"/>
<path fill-rule="evenodd" clip-rule="evenodd" d="M27.7051 12.8706L30.2635 10.729H31.6986L31.1579 10.1676L32.2394 8.71211L31.6986 7.98438L30.2635 8.71211L29.7019 7.98438L29.5147 9.79331L26.5819 11.9765L27.7051 12.8706Z" fill="#C03F2A"/>
<path fill-rule="evenodd" clip-rule="evenodd" d="M33.1755 13.6189H32.4475L31.9067 14.513L31.1579 13.6189H17.4925V24.8883H18.2413L17.4925 25.6369V26.5309L19.4893 24.1606V23.2665H18.9693V24.1606H18.2413V23.2665L23.5244 19.815H27.8716V16.3635L29.9099 14.513H31.1579L31.9067 15.2823L31.1579 15.9892H31.9067L33.1755 13.6189Z" fill="white"/>
<path fill-rule="evenodd" clip-rule="evenodd" d="M33.1755 13.6191H32.4475L31.9067 12.8706L31.1579 13.6191H17.4925V2.37042H18.2413L17.4925 1.62189V0.707031L19.4893 3.26449V3.97143H18.9693V3.26449H18.2413V3.97143L23.5244 7.61009H27.8716V11.0616L29.9099 12.8706H31.1579L31.9067 11.9765L31.1579 11.228H31.9067L33.1755 13.6191Z" fill="#E0852A"/>
<path fill-rule="evenodd" clip-rule="evenodd" d="M30.2635 13.6189H17.4925V23.2665L23.15 19.2536H27.3307V15.9892L30.2635 13.6189Z" fill="#307359"/>
<path fill-rule="evenodd" clip-rule="evenodd" d="M8.94384 9.6063L6.38548 7.61023H4.76311L5.3039 6.90329L4.20151 5.44783L4.76311 4.90723L6.38548 5.44783L6.75987 4.90723L7.11347 6.71616L9.87982 8.89936L8.94384 9.6063Z" fill="#C03F2A"/>
<path fill-rule="evenodd" clip-rule="evenodd" d="M7.46706 12.8706L4.9295 10.729H3.49432L3.82712 10.1676L2.93273 8.71211L3.49432 7.98438L4.9295 8.71211L5.49109 7.98438L5.69908 9.79331L8.59024 11.9765L7.46706 12.8706Z" fill="#C03F2A"/>
<path fill-rule="evenodd" clip-rule="evenodd" d="M1.99671 13.6191H2.76629L3.28628 12.8706L4.05587 13.6191H17.4925V2.37042H16.9309L17.4925 1.62189V0.707031L15.7037 3.26449V3.97143H16.2445V3.26449H16.9309V3.97143L11.6894 7.61009H7.27982V11.0616L5.30385 12.8706H4.05587L3.28628 11.9765L4.05587 11.228H3.28628L1.99671 13.6191Z" fill="white"/>
<path fill-rule="evenodd" clip-rule="evenodd" d="M4.92946 13.6193H17.4925V3.97168L12.0637 7.9846H7.84141V11.2282L4.92946 13.6193Z" fill="#307359"/>
<path fill-rule="evenodd" clip-rule="evenodd" d="M11.6894 19.2539L9.11029 21.2708H7.65431L8.0287 21.9985L7.11351 23.4124L7.65431 24.1609L9.11029 23.4124L9.65107 24.1609L9.87987 22.3312L12.771 20.148L11.6894 19.2539Z" fill="#C03F2A"/>
<path fill-rule="evenodd" clip-rule="evenodd" d="M8.94384 17.6111L6.38548 19.8151H4.76311L5.3039 20.3765L4.20151 21.8111L4.76311 22.5181L6.38548 21.8111L6.75987 22.5181L7.11347 20.7091L9.87982 18.5467L8.94384 17.6111Z" fill="#C03F2A"/>
<path fill-rule="evenodd" clip-rule="evenodd" d="M7.46706 14.5129L4.9295 16.5506H3.49432L3.82712 17.2575L2.93273 18.5467L3.49432 19.2536L4.9295 18.5467L5.49109 19.2536L5.69908 17.4447L8.59024 15.2823L7.46706 14.5129Z" fill="#C03F2A"/>
<path fill-rule="evenodd" clip-rule="evenodd" d="M1.99671 13.6189H2.76629L3.28628 14.513L4.05587 13.6189H17.4925V24.8883H16.9309L17.4925 25.6369V26.5309L15.7037 24.1606V23.2665H16.2445V24.1606H16.9309V23.2665L11.6894 19.815H7.27982V16.3635L5.30385 14.513H4.05587L3.28628 15.2823L4.05587 15.9892H3.28628L1.99671 13.6189Z" fill="#E0852A"/>
<path fill-rule="evenodd" clip-rule="evenodd" d="M4.92946 13.6189H17.4925V23.2665L12.0637 19.2536H7.84141V15.9892L4.92946 13.6189Z" fill="#C03F2A"/>
<path fill-rule="evenodd" clip-rule="evenodd" d="M30.2635 13.6193H17.4925V3.97168L23.15 7.9846H27.3307V11.2282L30.2635 13.6193Z" fill="#C03F2A"/>
<path fill-rule="evenodd" clip-rule="evenodd" d="M16.2445 13.6191L12.7709 11.228H10.5662L11.3358 10.5418L9.87978 8.89924L10.5662 7.98438L12.7709 8.89924L13.3117 7.98438L13.6653 10.1676L17.4925 12.6834L16.2445 13.6191Z" fill="#C03F2A"/>
<path fill-rule="evenodd" clip-rule="evenodd" d="M18.9693 13.6189L22.422 15.9892H24.606L23.878 16.9249L25.3132 18.5467L24.606 19.2536L22.422 18.5467L21.694 19.2536L21.5276 17.0704L17.4925 14.513L18.9693 13.6189Z" fill="#C03F2A"/>
<path fill-rule="evenodd" clip-rule="evenodd" d="M18.9693 13.6191L22.422 11.228H24.606L23.878 10.5418L25.3132 8.89924L24.606 7.98438L22.422 8.89924L21.694 7.98438L21.5276 10.1676L17.4925 12.6834L18.9693 13.6191Z" fill="#307359"/>
<path fill-rule="evenodd" clip-rule="evenodd" d="M16.2445 13.6189L12.7709 15.9892H10.5662L11.3358 16.9249L9.87978 18.5467L10.5662 19.2536L12.7709 18.5467L13.3117 19.2536L13.6653 17.0704L17.4925 14.513L16.2445 13.6189Z" fill="#307359"/>
<path fill-rule="evenodd" clip-rule="evenodd" d="M21.694 13.6191L17.4925 9.6062L13.3118 13.6191L17.4925 17.6113L21.694 13.6191Z" fill="white"/>
<path fill-rule="evenodd" clip-rule="evenodd" d="M31.1579 15.2823L30.5963 15.9892L31.1579 16.9249H31.9067L33.6955 13.6189H33.1755L31.9067 15.9892H31.1579L31.9067 15.2823L31.1579 14.513H29.9099V15.2823H31.1579Z" fill="#C03F2A"/>
<path fill-rule="evenodd" clip-rule="evenodd" d="M31.1579 11.9764L30.5963 11.2279L31.1579 10.5417H31.9067L33.6955 13.619H33.1755L31.9067 11.2279H31.1579L31.9067 11.9764L31.1579 12.8705H29.9099V11.9764H31.1579Z" fill="#C03F2A"/>
<path fill-rule="evenodd" clip-rule="evenodd" d="M4.05588 15.2823L4.57587 15.9892L4.05588 16.9249H3.28629L1.47672 13.6189H1.99671L3.28629 15.9892H4.05588L3.28629 15.2823L4.05588 14.513H5.30386V15.2823H4.05588Z" fill="#C03F2A"/>
<path fill-rule="evenodd" clip-rule="evenodd" d="M4.05588 11.9764L4.57587 11.2279L4.05588 10.5417H3.28629L1.47672 13.619H1.99671L3.28629 11.2279H4.05588L3.28629 11.9764L4.05588 12.8705H5.30386V11.9764H4.05588Z" fill="#C03F2A"/>
<path d="M16.9518 10.5417H18.2413V16.925H16.9518V10.5417Z" fill="#C03F2A"/>
<path d="M14.9341 11.9763H20.2172V15.2823H14.9341V11.9763Z" fill="#C03F2A"/>
</svg>
