<svg width="41" height="42" viewBox="0 0 41 42" fill="none" xmlns="http://www.w3.org/2000/svg">
<path d="M25.4718 11.4188C25.4717 10.4146 25.18 9.43306 24.6336 8.5982C24.0872 7.76335 23.3107 7.11269 22.4022 6.72851C21.4937 6.34433 20.4941 6.24388 19.5297 6.43987C18.5653 6.63585 17.6795 7.11947 16.9843 7.82956C16.289 8.53965 15.8156 9.44433 15.6238 10.4292C15.432 11.4141 15.5305 12.4349 15.9068 13.3626C16.2832 14.2903 16.9204 15.0832 17.738 15.6411C18.5556 16.199 19.5168 16.4967 20.5001 16.4967C21.8183 16.4951 23.082 15.9595 24.0141 15.0076C24.9461 14.0556 25.4704 12.765 25.4718 11.4188ZM16.7059 11.4188C16.706 10.6525 16.9287 9.90341 17.3457 9.26631C17.7626 8.62922 18.3553 8.1327 19.0486 7.83954C19.7419 7.54638 20.5047 7.46975 21.2407 7.61933C21.9766 7.76891 22.6526 8.13799 23.1832 8.6799C23.7137 9.22181 24.075 9.91222 24.2214 10.6638C24.3677 11.4154 24.2925 12.1944 24.0053 12.9024C23.7182 13.6104 23.2319 14.2155 22.6079 14.6412C21.984 15.0669 21.2504 15.2941 20.5001 15.2941C19.494 15.293 18.5295 14.8843 17.8182 14.1577C17.1069 13.4312 16.7069 12.4462 16.7059 11.4188Z" fill="#26558C"/>
<path d="M40.461 40.2969L35.6612 27.4466C35.6186 27.3328 35.5432 27.2349 35.445 27.1658C35.3468 27.0967 35.2303 27.0597 35.1111 27.0597H26.0269C26.0824 26.9673 26.1376 26.8776 26.1931 26.7848C29.6885 20.875 31.4475 15.7054 31.4222 11.4215C31.4227 8.46317 30.2724 5.62582 28.2244 3.53362C26.1764 1.44143 23.3984 0.26576 20.5015 0.265259C17.6047 0.264758 14.8263 1.43946 12.7776 3.53095C10.7288 5.62244 9.57759 8.45939 9.5771 11.4177C9.55187 15.7054 11.3108 20.8757 14.8062 26.7848C14.8617 26.8786 14.9169 26.9683 14.9724 27.0597H5.88825C5.76899 27.0597 5.65255 27.0967 5.55432 27.1658C5.4561 27.2349 5.38072 27.3328 5.33815 27.4466L0.539008 40.2969C0.504812 40.3879 0.492838 40.4861 0.504119 40.5829C0.515401 40.6797 0.549599 40.7723 0.603758 40.8526C0.657918 40.9329 0.73041 40.9986 0.814972 41.0439C0.899533 41.0891 0.993621 41.1127 1.08911 41.1126H39.9109C40.0064 41.1127 40.1005 41.0891 40.185 41.0439C40.2696 40.9986 40.3421 40.9329 40.3962 40.8526C40.4504 40.7723 40.4846 40.6797 40.4959 40.5829C40.5072 40.4861 40.4952 40.3879 40.461 40.2969ZM10.755 11.4187C10.7552 10.1119 11.0075 8.81781 11.4975 7.61049C11.9874 6.40317 12.7054 5.30622 13.6104 4.38228C14.5155 3.45833 15.5899 2.72548 16.7723 2.22556C17.9547 1.72565 19.222 1.46846 20.5017 1.46869C21.7814 1.46891 23.0486 1.72655 24.2308 2.22688C25.413 2.72721 26.4872 3.46044 27.3919 4.38471C28.2967 5.30897 29.0143 6.40618 29.5038 7.61367C29.9934 8.82116 30.2452 10.1153 30.245 11.4222C30.2954 19.9632 22.4763 30.4973 20.5 33.0234C18.5237 30.4983 10.7042 19.9669 10.755 11.4187ZM20.0515 34.3634C20.1068 34.4298 20.1755 34.4831 20.253 34.5196C20.3304 34.5562 20.4147 34.5751 20.5 34.5751C20.5853 34.5751 20.6696 34.5562 20.747 34.5196C20.8245 34.4831 20.8932 34.4298 20.9485 34.3634C22.5118 32.4186 23.961 30.3811 25.2887 28.2616H34.705L35.4586 30.2802L17.0578 36.9633L10.499 28.2605H15.7106C17.0385 30.3805 18.488 32.4183 20.0515 34.3634ZM17.0372 38.246H17.0406L28.018 34.2603L32.2758 39.91H12.4588L17.0372 38.246ZM6.29435 28.2605H9.01287L15.8906 37.387L8.94525 39.9096H1.94369L6.29435 28.2605ZM33.7633 39.91L29.1845 33.8346L35.8799 31.403L39.057 39.91H33.7633Z" fill="#26558C"/>
</svg>
