<svg width="40" height="28" viewBox="0 0 40 28" fill="none" xmlns="http://www.w3.org/2000/svg">
<path d="M37.9486 0.527855H2.05132C0.923045 0.527855 0 1.47049 0 2.62263V25.6655C0 26.8176 0.923045 27.7604 2.05132 27.7604H37.9487C39.0768 27.7604 40 26.8178 40 25.6655V2.62263C39.9999 1.47049 39.0769 0.527855 37.9486 0.527855ZM37.1788 2.09886L21.18 14.3536C20.8923 14.5772 20.4507 14.717 19.9999 14.715C19.5491 14.717 19.1076 14.5772 18.8199 14.3536L2.82101 2.09886H37.1788ZM28.6328 15.1622L37.3507 26.16C37.3595 26.171 37.3702 26.1794 37.3795 26.1894H2.62046C2.62968 26.1789 2.64046 26.171 2.64921 26.16L11.3672 15.1622C11.6343 14.825 11.5836 14.3306 11.2528 14.0572C10.9226 13.7844 10.4384 13.8361 10.1712 14.1734L1.53843 25.0638V3.08082L17.8973 15.6104C18.5122 16.0781 19.2604 16.2839 19.9998 16.286C20.7382 16.2844 21.487 16.0785 22.1023 15.6104L38.4612 3.08082V25.0637L29.8286 14.1734C29.5614 13.8362 29.0768 13.7843 28.7471 14.0572C28.4163 14.3299 28.3655 14.825 28.6328 15.1622Z" fill="#26558C"/>
</svg>
