<svg width="20" height="20" viewBox="0 0 20 20" fill="none" xmlns="http://www.w3.org/2000/svg">
<path d="M19.4752 15.4282L15.4271 12.7286C14.9134 12.3888 14.2248 12.5006 13.845 12.9856L12.6658 14.5017C12.5143 14.7015 12.2388 14.7595 12.0196 14.6377L11.7953 14.514C11.0518 14.1087 10.1266 13.6042 8.26252 11.7394C6.39846 9.87471 5.89287 8.94883 5.48757 8.20664L5.36458 7.98234C5.24113 7.76315 5.29799 7.48651 5.49788 7.33376L7.01297 6.15495C7.49775 5.77512 7.60972 5.08671 7.27028 4.57284L4.57068 0.524768C4.2228 0.00148643 3.52486 -0.1556 2.9863 0.168141L1.29355 1.18498C0.761672 1.49767 0.371456 2.00408 0.204723 2.59809C-0.404835 4.81909 0.0537293 8.6522 5.70024 14.2994C10.1919 18.7907 13.5358 19.9985 15.8341 19.9985C16.363 20.0008 16.8899 19.932 17.4005 19.7939C17.9947 19.6274 18.5012 19.2371 18.8136 18.7051L19.8315 17.0133C20.1557 16.4747 19.9987 15.7763 19.4752 15.4282ZM19.2572 16.6714L18.2417 18.3641C18.0173 18.7481 17.653 19.0305 17.2252 19.152C15.1748 19.7149 11.5927 19.2487 6.17181 13.8278C0.750931 8.40692 0.284711 4.82511 0.847635 2.77444C0.969336 2.34606 1.25203 1.98131 1.6365 1.75658L3.32926 0.741064C3.56294 0.60046 3.86586 0.668614 4.01682 0.89569L5.48328 3.09736L6.71411 4.94341C6.86151 5.16631 6.81308 5.46505 6.6028 5.62999L5.08736 6.8088C4.62618 7.16144 4.49448 7.79951 4.77842 8.30592L4.89876 8.52456C5.32471 9.30577 5.85428 10.2776 7.78766 12.2107C9.72105 14.1437 10.6926 14.6733 11.4734 15.0993L11.6924 15.2199C12.1988 15.5038 12.8369 15.3721 13.1895 14.911L14.3683 13.3955C14.5333 13.1854 14.8319 13.137 15.0549 13.2842L19.1026 15.9838C19.3299 16.1346 19.398 16.4377 19.2572 16.6714Z" fill="#F1F1F1"/>
</svg>
